/* XPM */
static char *bluestone[] = {
/* columns rows colors chars-per-pixel */
"60 60 68 1 ",
"  c #000005",
". c #00000A",
"X c #0C0C0C",
"o c #000013",
"O c #0C0C16",
"+ c #00001C",
"@ c #0E0E1A",
"# c #121212",
"$ c #14141D",
"% c #1B1B1B",
"& c #000022",
"* c #00002B",
"= c #1D1D24",
"- c #10102A",
"; c #1E1E29",
": c #000034",
"> c #00003C",
", c #0C0C3B",
"< c #171733",
"1 c #202020",
"2 c #292930",
"3 c gray21",
"4 c #32323B",
"5 c #383839",
"6 c #000043",
"7 c #0E0E41",
"8 c #00004B",
"9 c #0B0B4D",
"0 c #181842",
"q c #15154A",
"w c #000053",
"e c #0C0C52",
"r c #00005B",
"t c #0F0F5F",
"y c #141454",
"u c #12125C",
"i c #22224E",
"p c #000063",
"a c #00006B",
"s c #0D0D6B",
"d c #101062",
"f c #1B1B61",
"g c #10106E",
"h c #000073",
"j c #0D0D72",
"k c #00007C",
"l c #0C0C7C",
"z c #171773",
"x c #4F4F57",
"c c #4F4F5A",
"v c #525253",
"b c #000083",
"n c #00008B",
"m c #0A0A8B",
"M c #000094",
"N c #00009B",
"B c #0000A3",
"V c #0000AC",
"C c #0000B3",
"Z c #0000BA",
"A c #0000C3",
"S c #0000CA",
"D c #0101D3",
"F c #0000DB",
"G c #0909D8",
"H c #0000E0",
"J c #1111E0",
"K c #1919E6",
/* pixels */
"4hbkkkbkkkbkkkkbkbkku5fnnnnnnnnnnnnnnnnnnnnnnnnnl3ikbbkbkbh2",
"=BBBBBBBBBBBBBBBBNNNs%gZZZCZZZCCZCZCCCZZZCZZZZZCm%yCVVCVCCV=",
".BBMMMnBMnMNkMNkMkha>XgCCVnNVNahnbBNbkMBBnnMCCNbwXyCCNNBVNk.",
".BMbnBNnknNNhnnhhhha6Xynbhhhwh6w68pka8w8ww6wppw86XyVVVMNBNp ",
".NnMNSVbkkMMnbhpkawr>X-:::::::::::::::::O XXX XXX#yVVCZBNkh ",
".BnMVZBbbnNNNNkaaarr:XdVVVVBBNVBBBNBVVVB7%qyyqqq<1yCBBNnkar ",
".BNNVVBBMnNBNMkhprrr:XuVZSZVNVVNNBBBVCBB:%mNNMMbw%yBNBnbbkp ",
".BNnBVBMnkbnnnnhhar8*#dVZSSVVCBBNNBNNMNM*%mNNMnk8XyVBNnMnnr ",
".BnbMNnbnNkahhkakkaw*XdVCZVNBVBVNNMbkbnk&$nNNbkp6XyBMMNBNh6 ",
".NbnNnkbNBkaprapakh8*XdVCCVNNVCCBNkhkkhp+%mBNkMa6XyBMBMMNp6 ",
".Mnnbnnkkkharph8rwwr*XdCVBCVVVZCVMpabbawo%mnnnbr6XuCNnhhbh6 ",
".MbMhknbhhahp8hr666w*#dVVBNCBNVCVNnbbarr+%mnnnha8XyVbahahk6 ",
".Nnbkhhprphaap88p6rw*#uVSSNMMMnnbbMMbap8o%bNnbha8XuBkhprrp6 ",
".Mbnaaaaaw6686666666*XdCASMbnBNkbbbbkhr8o%nbMNrr6X$oo...... ",
" . .  .              XdVVBNnnBBBnnnpahr8.%mBBNMr8X%%1%11=%1%",
"BZVBVBBBBVBBBB VVVBBNwwVBBMMBBBNbMnkaw86o%bBMBMa6XyBBB>kZZZZ",
"ZVBMVCBMMBnMNb.VCBZBMpwBBBCVNBBNkahp6wr8o%kMkaha>XyVNb*bCVVZ",
"ZVNNMBMbnMbknM.CZCVMk6wVBBCBnkbkakhr6ww6o%bMrrrr*XyBVn*bVCCC",
"VNNCVNnkbnbkkk CZVBMb>wVBBBnBkhpsarrrrr6o%mkrpr8:XqMkp&bZZCV",
"BMNVZBknMkbahk.CVNkMk>:ahapaar6>66>66:**.%rw6>>*& ,r6>ObZCVV",
"BMnMVVnbbhphha VNBhkh: XX#XXXXXXXXXXXXXXX%OXXX6666666&%mCBBN",
"VMbnMMnnnhhhpr CBMhhp:O0ududuuudduuddudduuyu1;CCCCBVVe%mCBNM",
"CBMMNMMMnhhpar VCnbap:#zCCVCCCCCVVVCBBVCCNNb@;CACAVBN>%mZNMN",
"VVnbNBMbnnkarr BMhkhr:OsZVVZDDZSAVCVBVCCCNMr ;CSASZNb>#mCVBN",
"VNbnNVBnnbnhrp.Nkrrrr:OjCVCSFFZFDZVMNMNMnNar ;CCCABMb:#mZZVB",
"VMNMBVVnhkkhrr **++++oXzCCCZSDVZDSBMbkknbbpr ;CZVVBMk*%mZZVV",
"BnMBBNBbaapp86 %%#%%%%%jCZCCCVBVZCBMbbkbaprr.;CSCBNnh*#mVVCC",
"BMMBBBnkarrpww ;NmMmnt1jVBCCMnBZVnBMbbnkharr ;CSZNNBk*#mVBCV",
"NnMMBMharrrp8r ;CVMBMw#sCCZCMnBBNnBBnkbaaha8 =CCZNNNb*#mZNNb",
"Mnbknbhpahkp66 ;VBNMnw#jCZVVVVNBkknBMpprrah6 ;VCNMVBb*#mNnMN",
"NnBnhkhaahkar6 ;VBMba>#jZVnNVVBNkhhaahp86w66 ;CCZMCBk*%mNbkk",
"MBMnbharw8ppr6.1CVMNh:#jBBCnBNMkhkhpaaa86rp6 ;CVZNnnh*#mZnkb",
"kMMbkkkaw8wrr8 =CVBha:#sMVnNBkkaakkhprrrprw6 ;CABNbaa*#mVBNM",
"knkhhkkarrrwrr ;VVBbp:OsVVnNNaprrhhhrwww8886 =CZBnnbp*#mBBNn",
"kbahhahprw88ww ;VNMhh>#ehrahr>>>>6686:****** ;CZNknba*%mBNNk",
"kMbhhhprw6w886 ;VNNNp:X%XXXXXXXXXXXXXXXXXXXXX;BVBbahp*#mVnnk",
"bnMkahar86w686 =CBnMa>#<uuuuuyuyuuuuyuuuuuyu1;BCVBkpw+#mVMbb",
"686>:>>*&&+++& ;VVbhr:#gVCVCVCVBBBBBBBNMBBBM@;BZVVBhw+#9w8>6",
"####@::668886>#;VBkhp:OsCAAZCVCVCVNBBNnbMnNb.;BCBBMh8+#7ww8 ",
"=sjlmNNNBVVBNN=;BBbkh:#sCSSAVVCCACbnnMNMMMbh ;BZBbhp8+OsMbb.",
";BCZZZZVCZCVVZO=BBbpa>#jZAZASSCCVnkkkkMMbkna ;BCnappw+%snkh.",
";BZCZSACZZBBCZ.;BNbwr:#sCZCZSDSnBnkkhhbkkkbp ;BNhapr8+#jkhp ",
";ZZZZFSVNBCZBC.=+++.o #sCZCZADDVBNnhhaaphkka.=nbhrrpw+%pkhr ",
";ZVVVCCBNNVVnn 1%%%1%%1gBVABNZVZBBBMkaphapw8 %oo..... #skrp ",
";ZZVNNVVNNBCZB.;CCBNMt1sBZSBNNVBBNknMkaprr66 1%1%1%11%11=== ",
";ZCNVCNNVVVnNB.;CnCnM6#gCZZCNNZZZNkkkapprr6> ;CVCCZZZZZZZZZ.",
";ZZZCNBBNnkMnB.;ZBVBn6OsVBBVVVZZZCNbkprpparw.;CVBVCVCVMVVBb ",
";ZVCNVCCBnphNV.;ZCnNk6#sCCBBBBCZZZBBbrrrraap.1VVZDSCCNNBBMk ",
";ZVBBGGCMNMkMN.;ZVBMnw#sCZVBVbbCZCBNbprprw88 =CCASSZCNMMMbp ",
";ZVCCJKZMNNbhk.;ZVBnn>#sBCBMbkknNNnhkkaprw6> ;VVVBZCVNNbkhr ",
";ZVZCAZBnnMr8r ;ZCVNh>XsBCCMNkkbbkkphMbhpr88 ;CCBMNBBbhkhrp.",
";CCCVBnnMnbarp ;ZCBMk>#sBVVVVbkkhbbphMMbhprw ;VVBNMNnhpharr ",
";VCCVnnMNNNkhr ;ZVBbb8#sCBBCNnnnhkaprknkarr6 ;VCVBNBNkakbp8 ",
";ZVCBnnkbBBnkp.;ZCBaa>#sVVNNnnBBbapaprpppw86 ;ZZVNNCVNknNh6 ",
";CBNnMbppbMNha ;ZCMhp:#sVBNNBNnBMpphpr86w66> =ZCBnBVVBbbbb6 ",
";VNkhbbbhbkhpp ;CNhap*#sVCnVZBphhrrrww8>8w66 ;ZVBVBNMnhkka6 ",
";BBbkhhapaappp ;VNkap>#sBVVVnNrpppww6wpr886w ;ZCCBNbkkhha8r ",
";BMkkkkhaaakkh=;Bnkkhe%gBNVNbbhkkharwpkkhrwp=;ZVNnNnkkkkhah ",
"4nnbkkkkkkkkkk44nbkkku3zZNnnnbkkkkkhkkkkkhkk44Znbkkbkkkkkkk=",
"vxxxxxxxxxxxxxvvxxxxxxvvcxxvxxxxxxxxxxxxxxxxvvxxxxxxxxxxxxx3"
};
