/* XPM */
static char *colorstone[] = {
/* columns rows colors chars-per-pixel */
"60 60 108 2 ",
"   c #1D1D1D",
".  c #3A2D15",
"X  c #3B2F18",
"o  c #3F3116",
"O  c #3E3019",
"+  c #232323",
"@  c #2B2B2B",
"#  c #3B3425",
"$  c #3E3728",
"%  c #343434",
"&  c #3C3C3C",
"*  c #423317",
"=  c #443418",
"-  c #49361A",
";  c #493818",
":  c #543C1C",
">  c #593F1F",
",  c #423723",
"<  c #463923",
"1  c #4C3D24",
"2  c #433B2D",
"3  c #483E2B",
"4  c #533F22",
"5  c #503F29",
"6  c #453E33",
"7  c #493F31",
"8  c #433F38",
"9  c #5C401F",
"0  c #4D412D",
"q  c #564125",
"w  c #5C4020",
"e  c #51412D",
"r  c #5A452C",
"t  c #474034",
"y  c #4C4334",
"u  c #44413D",
"i  c #4D453A",
"p  c #4F483D",
"a  c #514633",
"s  c #564935",
"d  c #5A4A35",
"f  c #50473B",
"g  c #544A3C",
"h  c #5C4E3E",
"j  c #634422",
"k  c #694624",
"l  c #6C4824",
"z  c #644729",
"x  c #65492C",
"c  c #6A4A2B",
"v  c #704A27",
"b  c #744D2B",
"n  c #7A4E2A",
"m  c #624A31",
"M  c #6A4F33",
"N  c #714E32",
"B  c #6D5137",
"V  c #64513D",
"C  c #6B533B",
"Z  c #725138",
"A  c #424242",
"S  c #4A4743",
"D  c #4D4943",
"F  c #4C4C4B",
"G  c #514C43",
"H  c #5A4E40",
"J  c #514F4B",
"K  c #5A5244",
"L  c #53514D",
"P  c #5B564D",
"I  c #5D584E",
"U  c #545454",
"Y  c #5A5753",
"T  c #5B5855",
"R  c #5B5B5B",
"E  c #645443",
"W  c #695541",
"Q  c #605549",
"!  c #665B4D",
"~  c #6C5C4A",
"^  c #715840",
"/  c #635B53",
"(  c #685C51",
")  c #635F5C",
"_  c #72604E",
"`  c #6B6155",
"'  c #64615E",
"]  c #6A645E",
"[  c #6F685F",
"{  c #75685C",
"}  c #646463",
"|  c #696664",
" . c #6D6A62",
".. c #6B6B6B",
"X. c #746C64",
"o. c #716E6A",
"O. c #75726E",
"+. c #7B756E",
"@. c #737373",
"#. c #787571",
"$. c #7A7876",
"%. c #7A7A7A",
"&. c #827C77",
"*. c #85807B",
"=. c #838383",
"-. c #8B8B8B",
";. c #929292",
":. c #989898",
/* pixels */
"%.%...; w 9 j k w w w w 4 9 > > 4 9 9 9 > - = : > j 4 > : ; R ..%.%.@.@.@.F @ @ @ @ @ @ F } ..U } U F F F F U R R } ..%.",
"%.@...L 1 : j k w w w w w 9 > > j > 9 9 > - = : > > 4 ; ; U } @.@. .o.o.@.} & @ @ % @ F } ..U } U F U U R } } } } } } ..",
"..o.@.} G 1 w j w w w w w w w : > w w w > - - : : : ; D R ) / p 9 9 9 0 L ) U & % % F } ..U } U U R R } } R R } R } } R ",
"U ..@.o.} g 9 j w w w w w w w > > w w w : = = - 4 0 Y ....G : : ; * o ; * g } R F F } ..R } } } R } } R U U F U U U F U ",
"F U | @.@.P 9 9 w w w w > w w w > > > > - = < a P ..@.X.G 4 - ; o o ; ; o 2 R @.@.....R R R R U R U R U R U R U R U R U ",
"F F U ..@.' q : w w w w : w w w w > > - = 3 G } @...I q : - ; ; q ; o o o o p =.:.@.R R U F F F F F F F F F F F F F F F ",
"F F F U ..@.P 0 : w w w w w w w > 4 - < S R } o.X.h 4 ; ; ; ; ; ; o o ; o . G -.-.} R L F F F F F F F F F F F F F F F F ",
"F F F F U ..o.G 1 : w w w w 9 : - - f K } o...Y r : ; ; ; ; ; * ; ; o o o . p =.%.} U F F F F F F F U F F F F F F F F F ",
"F U F F F R @.} L 0 9 : 9 : ; - i L ..O.@.` h q ; ; ; ; ; ; ; o o * o o o . D =.@.R F F F F F F F F F F F F F F F F F F ",
"F F F F F R %.@...L < * = = 6 D } @.%.| P r 9 : ; ; ; ; ; ; ; * q o o . X X L %.@.R F F F F F F F F F F F F F F F F F F ",
"F F F F F R @.@.%.| G D D D U R @.%.' d q : ; ; ; : ; = ; ; ; o ; ; o . . 2 R %...R F F F F F F F F F F F F F F F F F F ",
"F F F F A F @.@.} R U ) ..=.=.=.@.] r : 9 ; : ; ; ; ; ; ; ; ; . ; ; ; . . 2 } =.@.R F F F F F F F F F F A F F F F F F F ",
"F F F A A ..@.R U U U F } ;.-.-.' r ; : : ; 9 ; ; ; * ; * ; ; . ; ; o . . p ..%...U F F F F F U F F F F F F A F A F F F ",
"F F F A ..@.} R U U U F F @.-.%.r : : : ; ; ; ; ; ; ; ; ; ; * . ; ; o . # F @.%...R U F F F F F F F F F F F F F A F F F ",
"F F & } %.@.R U U U U F A F } U 9 ; 9 ; ; ; ; ; ; ; ; ; ; ; o o ; ; o . $ R %.%...R F F F F F F F U F F F F F F F F F F ",
"F & ..%.@...R U U U U F F U F ) 9 : : ; ; ; ; ; ; * ; ; * ; o . ; o o . 6 ..@.%.} F F F F F F F F F F F F F F F F F A & ",
"& } T 6 L } } U U U F A U U } } : ; : ; * ; ; ; ; ; ; ; ; ; . . ; = o o i V j P R F F F F F F F F F F F F F F F F F & A ",
"} R y 9 0 L } R U U F & F U U ..r : ; ; ; ; ; ; ; * ; * ; ; . o o o O i V j w s ) F F F F F F F F F F F F F F A & % A A ",
"R i 9 * q 0 T } U A A A U U U R | 4 : ; ; ; * ; ; ; ; ; o . . . X $ g ( w 9 9 ; Y } F S F F F F F F F F A A % & % A F ) ",
"y q q 9 o o y ..} A U A L U U F @.G ; ; ; ; ; ; ; ; ; ; o . . . $ R @.} s a 0 a  .%.| U A & A A A A & & & & & & A U ..R ",
"9 9 * * q o o I ..U U A U U U A ..' , ; ; ; ; ; o q 0 o . . X t U } @...} R } | =.-.%...F A % & % % & & & & A A U ....i ",
"q * * q o o o g ..} U A F U L & | @.D ; ; ; ; ; ; * o . # t U R R F F F F F F R %.:.:.=.@.R A & A A A & & & A U | } p 4 ",
"* o 9 * o q o i ..@.R F L U F & | %.} 2 o * ; ; ; o . 2 J ..} R F A & & & A & F R =.;.-.@.@.R A & & & & & A U ..O.g 4 : ",
"; 9 * * q o ; < U %.@.A A F F & ..%.@.D . o o o . . # U @...R F A A & & & A A & S ..=.%.} } ..R A & & % & U ..o.R q : ; ",
"; 9 ; * ; * o * p ..%.R A & A R %.$.%.' $ . . . o 2 F ..} R F A A A A & & & A & A } @...F F } @.R F F F U ..@.R f : ; ; ",
"o 9 9 * ; o * * t } =.@.R U R $.' ^ ~ ' L 8 8 p L } @.} U F A A F A & & A & & & A R @.R F F F } @...@.%.@.@.R i ; ; ; ; ",
"* ; ; 9 ; * o * 2 ..%.=.@...} ^ x 9 r r K R R | @.@.} U F A A A A A & & A & & % F } } F F A F F ..=.-.=.%...H 1 ; ; ; ; ",
"; ; ; ; ; o * * 8 ..@.@.@.@.M w 9 9 9 9 q I %.@.@.' U F A A A A A & & & & & & & U ..R L F F F F R ..@.@.| R a - ; ; : : ",
"; ; ; ; * o * * i } =.@.@...' 9 9 9 9 9 9 g @.@.} U U A A A A A A A & % A & % A } %.@.| } ) ) ) } ..$.| R T a ; ; ; : : ",
"; ; * ; * . * o u ..%...T } %.#.9 9 9 q q I %.| U F U A A A A & & A & & A & % L R V N N b b N b b z 4 z E ) h ; ; : : : ",
"; ; ; * o o * 3 R @...T R U } %.O.q q * g ....U F F U F A A A & & A & % A & F } C l l w w w w w > : : > 9 ` V ; ; ; ; ; ",
"; ; ; * o X 3 T } } R R U U U } %.%.} T } @.R F A A U A A & A A A A % % & % A ) B j l w w w w w w : : > > Q d ; ; ; ; ; ",
"; ; * * X 2 U } @.} R U U U U U } %.=.=.=...F A A F U F A A A A & & % % & & U T Z j l w 4 > > w > > : > > K s ; ; ; ; ; ",
"; ; ; o 8 U } @.} R R U U U U U U } %.;.;.%.A A A A F F A A & A A & % % & F ..Y N j l w j w w w > > : > > K p - - ; ; ; ",
"; ; * 8 U ..@.%.} U U U U R U U U R ..=.:.%.F A A F U F A A & A A & % % A ) O.W n j k j 9 9 w w 9 > : 4 > E U 6 = ; ; ; ",
"; * t U } ..@...R R R U U U U U U F U ..=.=.U A A A U F A A A A A A @ % A ....C n j j 4 9 j 4 w > > > > > K ..R t = * ; ",
"; 8 R } @.$...R U R U U U U U U U F F R ..=.R A & A U F F A A & & & % % F @.( m n j j w 9 w w w > > > j 4 K @.@.R t = = ",
"t U } %.=.@.} R U U U R U U U U R F F U } %.@.F % & U A F A A A A & @ & } ..W j v l j w 9 w w w > : > > : K @.%.@.R 6 6 ",
"R } =.;.=...U U U U U R R U U U U U A F R R } U & % A A A A A & A A @ A } ..V j n v j w w 9 4 9 > > w w : G R F U R U R ",
"} $.:.;.@.U U U U R U U U U R U U U A F U R ) U A % % % F A A A & % % F ..) x 4 v n j w w 9 9 9 > w w 4 : K A @ % & A R ",
"& } ;.=.} U U U R R R U U U U U U U A A U U R U F U F & & F & A A % & R @._ j w l n j > w w w : > w w w : H A @ @ @ @ % ",
"@ @ } @.U U U R R R U U U U U U F U F A F U T F T } R % % % & A & % & ..$.~ w w j v j w w w w w 9 w > w : H A @ @ @ + @ ",
"@ + U ..U U U R R R U U U U U U U U F A F U F A U %.=.U % % % 8 A & U ..@.| d 4 > k k w w w w w 9 w 9 j : H A @ @ @ + @ ",
"+ F } } U U U U R U R U U U U U F F A A F U A A } =.-.%.U % % & & % ) @.@.@...d > w k j w w w > : : 9 4 - H A @ % + @ @ ",
"F } } R F U R R R U U U U U U U F F A & F A A J @.R 3 D @.U % % % & @.@.U & U ) 5 : 4 k w w w > : > > - 6 R A @ @ + @ @ ",
"} @.@...R F U R U U U U U U U U F U A & & A F R U 3 - * A @.} U U ..@.U % @ % U o...r j w w w w w 4 : 3 U } & + + + + + ",
"%.%.@.@.%.R F F U U U U U U U U F F & % A F R U e ; - * - * S $.=.@.U % @ @ @ % U ..} 5 4 4 w w 4 : 7 U ..@.@.R F F F F ",
"%...@.=.=.=.R F F U U U U U U F F L & A F R L e ; = - * = * - F %...& % @ @ @ @ % U ..@./ 4 : : 1 7 U R U U U U U } @.%.",
"X.K j x ` &.$.R A F F U U U F F F A & F R U 5 ; ; ; ; * = * - < @.U % @ @ @ @ + @ % F @.@.U 5 7 F U } R U U U U U F } %.",
"k j 9 9 j m !  .T S A F U U F A A & L U U 5 ; - ; = ; * = * - 7 ..% @ @ @ @ @ @ @ @ % U @.@.R U R @.} U U U U U F F R %.",
"9 9 9 9 9 j j d K U S A F F A A A U U y a : ; ; ; = = * = X 2 U F % @ @ @ + + @ @ @ @ % U @.@...$.%.R F F U U U F F ) { ",
"9 q 9 9 9 9 9 9 : s g u A A & F R U a > : ; ; ; - = = * * * F F % @ @ @ @ @ + + @ @ @ @ % U @.@.=.@.U F U U U U F F } v ",
"9 9 9 9 9 9 9 9 : : w e A A F ) U 1 : > : ; ; ; ; * ; * O 2 R & % @ @ @ @ @ @   + @ @ @ % % U @.%.R U U U U U F S F Q j ",
"9 9 9 * 9 9 9 q ; 1 : ; D L R U 5 : : > ; ; ; ; - * * * 6 U U % @ @ + @ @ @ @ + + + @ @ @ @ % U ..} U U U U U F F Y c w ",
"9 9 q 9 9 9 q q ; ; ; a R R U 0 ; ; : > ; ; ; ; - * * * F } & % @ @ + @ @ @ @ +       @ @ @ @ % U ..R U U F F F F E j w ",
"9 9 9 9 9 9 9 o ; ; a } @.@.F ; ; ; : > ; ; ; = - = X 6 R S % % @ @ @ @ @ @ @ @ + + + + @ @ @ @ % F R F F F F F U c j 4 ",
"9 9 9 9 9 ; : * * y | %.%.%.U ; ; ; > > ; ; ; * ; * 6 U U & @ & @ @ @ @ @ @ @ @   + + +   @ @ @ % @ A U F F U F m z 4 w ",
"9 9 9 9 9 9 * o t | } F R @.} u ; ; : : ; ; ; ; ; * D } A @ @ % @ @ @ @ @ @ @ @ @     @ @ + @ @ @ @ % R R U F R M w w w ",
"9 9 9 9 9 9 o t } } F A A R %.L - ; > : ; * ; ; = t R A % @ @ & @ @ % @ @ @ @ @ @ +     @   + @ @ @ % } } F R V j w w w ",
"9 9 9 ; ; o t ' %.U A A & A U ' ; ; : ; ; ; ; ; t F } % @ @ @ % @ @ @ @ @ @ @ @ @ +     @ @     @ @ % } $...} V j w w w "
};
