/* XPM */
static char *eeagle[] = {
/* columns rows colors chars-per-pixel */
"60 60 233 2 ",
"   c #291B1B",
".  c #271919",
"X  c #391616",
"o  c #3C0808",
"O  c #3E1C3E",
"+  c #232222",
"@  c #2C2A2A",
"#  c #2C2222",
"$  c #322424",
"%  c #382C2B",
"&  c #3C283C",
"*  c #353535",
"=  c #3A3A3A",
"-  c #3C3131",
";  c #430000",
":  c #4D0000",
">  c #480A0A",
",  c #550000",
"<  c #590000",
"1  c #590E0E",
"2  c #591414",
"3  c #481313",
"4  c #620000",
"5  c #6B0000",
"6  c #670F0F",
"7  c #740000",
"8  c #7D0000",
"9  c #651D1D",
"0  c #7F1515",
"q  c #582A2A",
"w  c #473636",
"e  c #563E3E",
"r  c #5A3E3E",
"t  c #543333",
"y  c #4F2525",
"u  c #6B2323",
"i  c #632A2A",
"p  c #782727",
"a  c #683A38",
"s  c #753636",
"d  c #753C3C",
"f  c #7A3B3B",
"g  c #7B3535",
"h  c #763320",
"j  c #4C481A",
"k  c #7A720E",
"l  c #7C4D24",
"z  c #685127",
"x  c #430043",
"c  c #4A004A",
"v  c #480B48",
"b  c #481848",
"n  c #510051",
"m  c #530B53",
"M  c #59015A",
"N  c #59055A",
"B  c #551355",
"V  c #5A145A",
"C  c #5C1B5B",
"Z  c #541B54",
"A  c #5C1943",
"S  c #631041",
"D  c #462946",
"F  c #4C3C4C",
"G  c #4A334A",
"H  c #532253",
"J  c #532A53",
"K  c #5C225C",
"L  c #5C2B5C",
"P  c #5C325D",
"I  c #563A56",
"U  c #5E0161",
"Y  c #5E1761",
"T  c #620065",
"R  c #6B006D",
"E  c #660569",
"W  c #601D61",
"Q  c #69186C",
"!  c #6D0071",
"~  c #6F0972",
"^  c #710072",
"/  c #731276",
"(  c #622262",
")  c #662A67",
"_  c #643264",
"`  c #623B62",
"'  c #6F396F",
"]  c #6F3371",
"[  c #743477",
"{  c #444444",
"}  c #4C4444",
"|  c #4B4B4B",
" . c #4A454A",
".. c #534545",
"X. c #5A4848",
"o. c #574457",
"O. c #535353",
"+. c #5A5659",
"@. c #654949",
"#. c #664646",
"$. c #764242",
"%. c #7A4444",
"&. c #775959",
"*. c #7E5E42",
"=. c #746252",
"-. c #6C4B6C",
";. c #654965",
":. c #6B5C6B",
">. c #6B556B",
",. c #754775",
"<. c #725A72",
"1. c #7A557A",
"2. c #745774",
"3. c #7C4365",
"4. c #626162",
"5. c #6C6A6C",
"6. c #6B6568",
"7. c #7A6767",
"8. c #796779",
"9. c #757475",
"0. c #7C7C7C",
"q. c #7C7579",
"w. c #830000",
"e. c #8D0000",
"r. c #940000",
"t. c #9D0000",
"y. c #910909",
"u. c #901D19",
"i. c #A30000",
"p. c #A90606",
"a. c #B50000",
"s. c #BB0000",
"d. c #AC1D1D",
"f. c #B42906",
"g. c #8A2525",
"h. c #992727",
"j. c #843E3E",
"k. c #883939",
"l. c #903E3E",
"z. c #A52222",
"x. c #A82D2D",
"c. c #B32D2D",
"v. c #BB2D2D",
"b. c #B72222",
"n. c #A93E3E",
"m. c #C40000",
"M. c #CC0000",
"N. c #D20000",
"B. c #DB0000",
"V. c #C41515",
"C. c #E30000",
"Z. c #EB0000",
"A. c #C92B2B",
"S. c #EE2800",
"D. c #8E4D18",
"F. c #AA5408",
"G. c #B45401",
"H. c #AA5B15",
"J. c #81532B",
"K. c #A75F20",
"L. c #87603E",
"P. c #B36A2B",
"I. c #A96C36",
"U. c #B06D32",
"Y. c #D0711B",
"T. c #854444",
"R. c #8A4444",
"E. c #874E4D",
"W. c #974747",
"Q. c #865555",
"!. c #845B5B",
"~. c #925A5A",
"^. c #965656",
"/. c #A74A4A",
"(. c #AB5656",
"). c #836346",
"_. c #876A6A",
"`. c #9A6262",
"'. c #946B6B",
"]. c #946363",
"[. c #897665",
"{. c #8B7777",
"}. c #957474",
"|. c #9F7C7C",
" X c #9A7272",
".X c #A37C7C",
"XX c #AB7E7E",
"oX c #AD6565",
"OX c #C65353",
"+X c #C26C53",
"@X c #B0AB0F",
"#X c #D0B315",
"$X c #E8D000",
"%X c #B4845A",
"&X c #988676",
"*X c #B18762",
"=X c #D39E6E",
"-X c #7F2B80",
";X c #830084",
":X c #8F0090",
">X c #881589",
",X c #865C86",
"<X c #905893",
"1X c #846C84",
"2X c #876387",
"3X c #897689",
"4X c #967D96",
"5X c #966997",
"6X c #A172A3",
"7X c #858585",
"8X c #8D8D8D",
"9X c #8D8385",
"0X c #948C86",
"qX c #968B96",
"wX c #949494",
"eX c #9C9B9B",
"rX c #9E9393",
"tX c #999088",
"yX c #AA8484",
"uX c #B88989",
"iX c #A39292",
"pX c #A6979A",
"aX c #B0A499",
"sX c #A792A7",
"dX c #A3A3A3",
"fX c #AAAAAA",
"gX c #B4AEA9",
"hX c #B4B4B4",
"jX c #BBBBBB",
"kX c #B1AEB1",
"lX c #C48F8F",
"zX c #C3C3C3",
"xX c #CACACA",
/* pixels */
"= = = = = = = = * = * w = = = = = - = = = = = = = = = = = = = = w = = = = = = = = = = = = = = = * = = = = = = = = = = = ",
"| t @.X.r r r X.#...F r } | O.z w I r r r ..r #.@.@.@.@.@...r r F ..e | | ..@.@.@.@.@.@...X.r r w t t ..X.#.X.e r ..e = ",
"w S.B.M.M.M.M.M.M.M.M.t.t | O.Z.B.M.M.M.M.m.M.M.M.M.M.M.m.M.m.N.M.s.0 { { h.C.C.C.B.B.B.N.M.N.m.N.M.M.M.m.s.m.s.s.s.f.w ",
"*.$Xf.c.v.v.h.v.x.c.c.g...4.5.A.c.h.c.h.x.x.x.x.x.c.x.c.k.v.g.v.A.h.a O.+.W.c.v.v.v.c.c.A.g.v.h.v.v.c.h.x.h.c.x.c.f.$Xj ",
"#X@Xk eXdXdXdXdXdXdXdXdXdXdXdXdXfXdXdXdXdXdXdXdXdXdXdXdXpXdXdXdXdXdXdXdXdXdXdXdXdXdXdXdXdXdXdXdXdXdXdXdXdXdXdXeXeX@X#Xk ",
"L.k l 9.0.0.0.7X7X7X7X7X7X7X7X7X7X7X7X7X7X7X7X7X7X7X7X7X7X7X7X7X7X7X7X8X7X7X9X9X7X7X8X7X7X7X7X7X7X7X7X7X7X7X9.9.9.z +Xj ",
"} u.u.7X{./.E.&.7._.Q.Q.Q.Q.Q.Q.!.Q.Q.Q.Q.Q.Q.Q.Q.Q.Q.Q.Q.Q.Q.Q.Q.Q.Q.Q.Q.Q.Q.Q.Q.Q.Q.Q.Q.Q.Q.(.(.(.oX{.&.@.6.8X7X2 h @ ",
"} a.u.wX~.A.^.X.t a E.~.'.`.].~.~.~.~.~.~.~.~.~.~.~.~.~.~.~.~.`.~.~.~.~.~.~.~.~.~.~.~.~.~.`.`.oX+XOXl.r r #.W.yX0.2 ; @ ",
"} r.g.dX&.T.fXeX6.7.eXfXjXdXeXkXzXjXhXhXhXhXhXhXhXhXhXhXhXhXhXhXhXhXhXhXhXhXhXhXhXhXhXhXdX<X8XzXjXfX3X7.7XfXOXE.9.2 ; @ ",
"} q r jX_.a dXhXpX7X7XeXeX5._ 8XjXxXzXjXjXhXhXhXhXhXhXhXhXhXhXhXhXjXhXhXhXhXhXhXhXhXjXdX9.T ` dXkXfXeXrXfXfXs &.9X- . @ ",
"| { O.xX0X+.8XfXjXeX7X7X8XK N ( [ eXjXzXzXjXjXjXjXhX,X3X9.' ' ' W.U.%X=XhXhXhXjXzXdX7X] ( n B eXeXeXeXhXzXwXO.7.eX= # @ ",
"V.p.c.jXrXe 7XdXhXhXeX9.9. .c n m ( ,.eXhXhXhXjXhXhX) Z Z n n >.S G.Y.Y.=XjXhXsX7X' C N n n o.wXeXeXfXzXjX8Xt 9.dXq > p.",
"a.r.z.jXiXg 8XwXdXhX7X( :.4.F x c n m W ( 1.8XdXhXhXq.B n n n V S H.&XaXpX7X,.Q Y N n n n F 5.8.P 7XhXhXdX7Xq _.kXu < a.",
"e.i.h.jXlXn.pXwXwX0.] U F 5.4.F c c c M ^ N V ,.9XfXfX( n c n n C tXfX7X-.Q U ! U n n c F 5.+.E U ) 7XdX8X7Xs }.kXu , r.",
"7 i.z.hXXXL.sXrX8X` N E U U | 4.F & c M U c M N N qXhX( n n n n ( hX4XN U M n T M c & { 4. .m T T ! [ wX7X7Xs }.kXu , 8 ",
"i.w.g.hX.X/.jXpXwXP c M ! U U N }  .O O x c c n P eXkX( n n n c W hXeXI v c c c x & {  .c n M T ! R [ 8X7X8Xg }.kXu , 8 ",
"7 t.p hX.X^.zXhXeX5.b c U ! ! U M c x x x x c -.pXhX0.V n n n n B {.kXeX>.m c x x x c x c M T ! E ( 5.7X7XwXk..XhXu < w.",
"5 r.u hX|.W.xXhXwX9.O.b m U U ! U M T x O x ` _ ` eX,.n n n n c n ,.eXP P ` x x x M n c M T ! Q ) :.9.q.7XeXj..XhXu < 4 ",
"o > q hX|.W.xXqXK P O.O.| Z V U R T ^ M c c c c c 3XdXY n n n n K dX1Xc c x c x M T M M T Y ] 4.5.+.D F q.dXJ.5XhXy > o ",
"= = | hX|.T.jX5Xn n H F F |  .V C Q M R n n c c c ` ;.m c n n n m ;.` c c c c c U M Z Y ] 4.q.>.I D O c -.dXk..XhX= + @ ",
"O.k.R.jX0XR.jX5XU M c x x O D D I _ R M M c c c c n n n n n n n n n c c c c c n n E L I 1.-.J c x O x x ,.fXj..XhXw X @ ",
"X.Z.A.xXuX/.zX<XU M n n x O O x c M ;XM M n c c n n n c n n n n n c c x c c n n M :XU M M n c x x x x c _.dXR.5XhXu , @ ",
"} C.z.zXuXW.jX3XY U n n c x x c x n ^ M M n n n n n H J J _ P P J H n c c n M M M ;XT M n c c x x O x Z 8.dXl..XhXu ; @ ",
"w M.g.jXyXW.fX8X<.P m n c x x c c c T U n n n n n n +.P >X] [ [ _ o.n n M M M M T R M M c c c x O v G <.8XfXR..XhXu ; @ ",
"..a.h.hX.XR.4X' ;.+.;.;.I o.G G D O n M U T n n n c :.>X;X! ! ;X>X:.n n M M T T T M J I D & & & b F +.;.[ sXW.4XzXu ; @ ",
"X.a.u.fX}.j.2Xn m Z K L K Z Z b v v c n M ! R M n n o./ ! ! ! ! / o.n M M ! R M M M B b b b v b b Z Z N E 6XI.lXxXu ; @ ",
"| m.h.fX}.T.,Xc n M M M n c c n c c c c n M M n n n >.>X! ! ! ! >X>.n M M M M M M n c c c c c x c n n U R 6Xn.uXzXu ; @ ",
"..i.u.pX_.a 1.n n n M n M n n n n n n n n c n n n n o./ :XI ! :X/ o.n n n M M M n n c c x c c x c n M T R 5XK.6XzXu ; @ ",
"| e X.dX_.d ,Xc n n n M n n n n n m F n n n H H n n >.+.~  .! ~ +.>.n n H H n n n I v c c c x c c n M U M 2XW..XhXw + @ ",
"O.O.4.fX}.%.9XP n n n n n n n  .:.n n n n H J c n n o.9.q.+.+.q.9.o.n n n J H n c n c :. .c c c n n M U L 8XR..XhX= @ @ ",
"a.s.b.hX|.T.fX7XP N n m F 6.5.n c n n n L ` n n n n c n o.9.9.o.n n n n M n ` L n c x c n 5.6.F m N N _ 7XfXR.|.hXu < a.",
"i.i.z.hX|.T.hXkXdXwX8X8X8.m n n n n n L ` c n n n n n n n n n n n n n n n n n ;.J c c c c c m 5.qX8XwXdXfXdXf }.dX9 < t.",
"i.8 h.hX|.R.hXrX3X8.Z n n n n n n n L ;.c n m n m n n n n n n n n n n B n m n n ` J n c n c n M M C 8.3X8XeXs 7.wX9 < 5 ",
"e.w.z.hX|.l.hX,Xn n n n n n c n n L ` n n m -.;.;.Z n n n n c n n n Z ` ;.;.m n n ` J n c n M M M n n n ,.8Xa 7.8X9 < 7 ",
"i.w.g.kX.Xl.hX2XB n c n n n n n L ` n c n P q.<.C n n n n n n n n n n Z <.q._ n n n ` L n n n M M M M m 2.wXd _.eX9 < 8 ",
"e.8 g.hX4XW.hXiX_ n n n n n n L ` n n n V ,.) n n c n n n c n n n n n n n _ ,.Y n n n ` L n n M M M n _ 8XdXf _.eX9 < 5 ",
"< < p kX4Xl.gXgX8.B n n n n L ` n n n n ( _ n n n n c n n n n n n n n n n c ) W n c n n ` P n n n M B 8.fXfX%.}.fXu < < ",
"X X A jXXXL.jXjXdX<.B n n P ` n n n n V ) n c n n c n n n n n n n n n n n n n ) C n n n n P P n n B <.dXhXhXT.|.hXt X X ",
"{ = +.xXlX/.xXxXjXdX1X1.1.7Xn n n n C 2X5XR n n n n n P m n n m P n c n n n T 5X1XC n n n n 9X1.1.1XdXhXhXhXR.|.hX= @ @ ",
"} d.K.xXuXn.xXxXjXhXfXfXfXeX8.n n N 3XfXkX,XK n n n n K n n c n K n n n n K ,XkXgX1XV n n 8.eXfXfXgXhXhXhXjXW.XXjXq > @ ",
"..B.b.hXXX/.jXhXhXhXhXhXeXI.U.2.4XqXkXdX|.E.B c n n n c n n c n n n n n n B E.&XfXfXqX4X2.P.I.qXhXjXjXjXzXzXW.uXzXu : @ ",
"..M.z.hXXXW.hXhXhXhXhXhXI.F.G.K.P.P.P.P.F.D.a A c P 4XC n n n n Y 3X` n A s D.H.P.P.P.P.K.G.F.I.jXjXzXzXxXxX/.uXxXp ; @ ",
"..M.h.hXXXl.hXhXhXhXhXhXaX[.=.J.G.G.G.F.D.*.0XpXsXdX,.M n n n n m ,.dXpXpX0Xl J.F.G.G.G.D.=.{.aXhXjXzXzXzXzX/.uXzXu ; @ ",
"w M.d.kX.XW.hXhXhXhXhXhXeXK.F.G.G.G.G.G.F.F.*XhXhX,.m n c n n n c M ,.hXhX*XF.F.F.G.G.G.F.F.K.eXhXhXhXhXjXzXW.uXzXu ; @ ",
"X.M.z.fX}.R.fXdXdXkXhXhXP.l l &XG.F.).aX[.D.%XeX_ m n n n n n n n n n ` wX%XD.[.aX).F.G.&Xl l P.hXhXhXhXhXhXR..XhXu o $ ",
"w s.z.fX}.j.fXfXfXfXfXhX).q.8XgXF.).hXhXgXwX4.H n n n n n n c n n n n n H 4.wXhXhXhX).F.kX8X0.).hXhXhXhXhXhXR.|.hXu ; @ ",
"O.y.u hX|.T.hXhXhXhXhXhXhXhXhXgXH.).hXqX:.J n c n n n m n n n n m n n n n n J 6.wXkXL.H.gXhXhXhXhXhXhXhXhXhXR.|.hXy o @ ",
"= { | hX|.s dXhXhXhXhXhXhXhXhXhXtXU.qXB m n n n n m C <.m n n m <.C m n n n n m V qXU.tXhXhXhXhXhXhXhXhXhXdXg |.hX= + @ ",
"d i Q.hXtXs {.fXkXkXhXhXhXhXhXhXhXhXfX7X;.Z m n B :.eXW n n n n ( eX<.m n m Z ;.7XfXhXhXhXhXhXhXhXhXhXhXfX{.s tXkXw X y ",
"a.m.d.dXfX_.d !.}.sXfXkXhXhXhXhXhXhXhXhXdX7X>.' 8.dX1Xm n n n c m {.dX8.' <.7XdXhXhXhXhXhXhXhXhXhXfXiX X_.s !.dXfX9 < t.",
"e.e.6 7.dXfX'.j.g l !.'. XeXfXhXhXhXhXhXhXhXhXhXhXhX-.n c n n n n -.hXhXhXhXhXhXhXhXhXhXhXfXrX X'.!.E.s j.{.dXdX7.1 < 4 ",
"i.8 5 2 &.8XdXkXeX'.E.T.d $.Q.'.pXfXhXhXhXhXhXhXhXhXwX` n n n m ` wXhXhXhXhXhXhXhXhXfXeX'.Q.$.f T.E.'.dXfXdX8X&.2 < 4 4 ",
"e.w.< < 2 t &.8XdXhXhXfXeX].E.d $.E.'.eXfXhXhXhXhXhXhXwX;.n n ` wXhXhXhXhXhXhXfXeX'.E.$.d 3.].eXfXhXkX8X_.%.t 1 < < 7 r.",
"7 t.5 8 < < 2 i $.Q.q.8XfXhXfXrX].Q.$.f E.'.eXkXhXjXhXhXwX` o.wXhXhXhXhXfXeX'.E.d $.Q.].rXfXhXkX8Xq.$.i 2 < , 4 < w.7 i.",
"4 i.8 w.5 w.7 < < < 2 q $.9.8XhXhXfXrX'.!.d s j.R.{.dXgXhXrXeXhXhXpX{.R.j.g $.&.'.rXfXhXhX8X9.l i 2 < < < < 8 7 < 7 r.5 ",
"7 r.5 e.5 8 8 5 5 w.5 < < 2 i d a 9.wXhXdXiX|.}.&.s p g 9XdXdX9Xk.g s &.}.|.iXfXkXrX9.#.O.{ - < < < 5 7 7 8 r.w.w.5 t.4 ",
"< < < < , < , , < < < : : : : ; o @ = +.9.eXhXhXfXrX{.7.p p p p &.{.iXfXkXeX0.#.i q 3 ; + @ @ , ; ; < < < < < < < < < < ",
"$ $ $ $ $ $ $ $ $ $ $ $ $ $ $ $ $ @ + + @ * { O.0.dXhXfXiXiXiXiXfXkXfX0.O.* @ +   $     + @ @ $ $ $ $ $ $ #         $ $ ",
"= | = | = * = { { | { | = * * * @ @ @ @ @ @ @ + @ @ * O.0.kXhX0.+.= @ @ + + + @ @ @ @ @ @ @ * = { | | { { { = = = { { { ",
"O.O.O.O.O.O.O.O.O.O.O.O.O.O.O.O.O.| { = = * @ + + + + + + @ @ + + + +   + + + + * * = { | | O.O.O.O.O.O.O.O.O.O.O.O.O.O."
};
