/* XPM */
static char *greystone[] = {
/* columns rows colors chars-per-pixel */
"60 60 200 2 ",
"   c #1F1F1F",
".  c #202020",
"X  c #212121",
"o  c #222222",
"O  c #232323",
"+  c #242424",
"@  c #252525",
"#  c #262626",
"$  c #272727",
"%  c #282828",
"&  c #292929",
"*  c #2A2A2A",
"=  c #2B2B2B",
"-  c #2C2C2C",
";  c #2D2D2D",
":  c #2E2E2E",
">  c #2F2F2F",
",  c #303030",
"<  c #313131",
"1  c #323232",
"2  c #333333",
"3  c #343434",
"4  c #353535",
"5  c #363636",
"6  c #373737",
"7  c #383838",
"8  c #393939",
"9  c #3A3A3A",
"0  c #3B3B3B",
"q  c #3C3C3C",
"w  c #3D3D3D",
"e  c #3E3E3E",
"r  c #3F3F3F",
"t  c #404040",
"y  c #414141",
"u  c gray26",
"i  c #434343",
"p  c #444444",
"a  c #454545",
"s  c #464646",
"d  c #474747",
"f  c #484848",
"g  c #494949",
"h  c #4A4A4A",
"j  c #4B4B4B",
"k  c #4C4C4C",
"l  c #4D4D4D",
"z  c #4E4E4E",
"x  c #4F4F4F",
"c  c #505050",
"v  c #515151",
"b  c #525252",
"n  c #535353",
"m  c #545454",
"M  c #555555",
"N  c #565656",
"B  c #575757",
"V  c #585858",
"C  c #595959",
"Z  c #5A5A5A",
"A  c #5B5B5B",
"S  c #5C5C5C",
"D  c #5D5D5D",
"F  c #5E5E5E",
"G  c #5F5F5F",
"H  c #606060",
"J  c #616161",
"K  c #626262",
"L  c #636363",
"P  c #646464",
"I  c #656565",
"U  c #666666",
"Y  c #676767",
"T  c #686868",
"R  c #696969",
"E  c #6A6A6A",
"W  c #6B6B6B",
"Q  c #6C6C6C",
"!  c #6D6D6D",
"~  c #6E6E6E",
"^  c #6F6F6F",
"/  c #707070",
"(  c #717171",
")  c #727272",
"_  c #737373",
"`  c #747474",
"'  c #757575",
"]  c #767676",
"[  c #777777",
"{  c #787878",
"}  c #797979",
"|  c #7A7A7A",
" . c #7B7B7B",
".. c #7C7C7C",
"X. c #7D7D7D",
"o. c #7E7E7E",
"O. c #7F7F7F",
"+. c #808080",
"@. c #818181",
"#. c #828282",
"$. c #838383",
"%. c #848484",
"&. c #858585",
"*. c #868686",
"=. c #878787",
"-. c #888888",
";. c #898989",
":. c #8A8A8A",
">. c #8B8B8B",
",. c #8C8C8C",
"<. c #8D8D8D",
"1. c #8E8E8E",
"2. c #8F8F8F",
"3. c #909090",
"4. c #919191",
"5. c #929292",
"6. c #939393",
"7. c #949494",
"8. c #959595",
"9. c #969696",
"0. c #979797",
"q. c #989898",
"w. c #999999",
"e. c #9A9A9A",
"r. c #9B9B9B",
"t. c #9C9C9C",
"y. c #9D9D9D",
"u. c #9E9E9E",
"i. c #9F9F9F",
"p. c #A0A0A0",
"a. c #A1A1A1",
"s. c #A2A2A2",
"d. c #A3A3A3",
"f. c #A4A4A4",
"g. c #A5A5A5",
"h. c #A6A6A6",
"j. c #A7A7A7",
"k. c #A8A8A8",
"l. c #A9A9A9",
"z. c #AAAAAA",
"x. c #ABABAB",
"c. c #ACACAC",
"v. c #ADADAD",
"b. c #AEAEAE",
"n. c #AFAFAF",
"m. c #B0B0B0",
"M. c #B1B1B1",
"N. c #B2B2B2",
"B. c #B3B3B3",
"V. c #B4B4B4",
"C. c #B5B5B5",
"Z. c #B6B6B6",
"A. c #B7B7B7",
"S. c #B8B8B8",
"D. c #B9B9B9",
"F. c #BABABA",
"G. c #BBBBBB",
"H. c #BCBCBC",
"J. c #BDBDBD",
"K. c #BEBEBE",
"L. c #BFBFBF",
"P. c #C0C0C0",
"I. c #C1C1C1",
"U. c #C2C2C2",
"Y. c #C3C3C3",
"T. c #C4C4C4",
"R. c #C5C5C5",
"E. c #C6C6C6",
"W. c #C7C7C7",
"Q. c #C8C8C8",
"!. c #C9C9C9",
"~. c #CACACA",
"^. c #CBCBCB",
"/. c #CCCCCC",
"(. c #CDCDCD",
"). c #CECECE",
"_. c #CFCFCF",
"`. c #D0D0D0",
"'. c #D1D1D1",
"]. c #D2D2D2",
"[. c #D3D3D3",
"{. c #D4D4D4",
"}. c #D5D5D5",
"|. c #D6D6D6",
" X c #D7D7D7",
".X c #D8D8D8",
"XX c #D9D9D9",
"oX c #DADADA",
"OX c #DBDBDB",
"+X c #DCDCDC",
"@X c #DDDDDD",
"#X c #DEDEDE",
"$X c #DFDFDF",
"%X c #E0E0E0",
"&X c #E1E1E1",
"*X c #E2E2E2",
"=X c #E3E3E3",
"-X c #E6E6E6",
";X c #E9E9E9",
":X c #EAEAEA",
/* pixels */
"+ 8 % 6 % 6 - - < - 8 < y - y - y < y < w 6 6 8 6 < % 8 % y - y < w < 8 6 6 6 - < % 8 + 8 O 8 + 6 % < - < < - 6 % 8 + 8 ",
"m m m b m m m m b x l.+X+X+X`.+X|.+X+XOX|.|.OXOX|.Z < ] l.G.Q.W.Q.Q.W.P.Z.Z.4.U - w f b x b b x x x b b b b b x b b m b ",
"H H D D H D D m b f N.|.Q.(.J.(.`.(.Q.`.W.P.`.Q.w.y 6 X.P.Z.4.f.>.4.4.4.,.w.] y % < R 7.a.7.i.i.w.@.] U m b m m b m m m ",
"a.i.w.i.w.4.>.m 8 x N.(.W.Z.W.N.G.J.G.P.G.N.P.f.~ < < 4.Q.f.4.a.w.f.7.a.7.4.U s % 6 X.(.+X`.|.(.|.P.J.b.i.i.i.a.w.i.i.a.",
"W.Q.W.P.b.i.&.x w x N.`.b.l.a.l.w.f.l.f.a.i.b.,.H < < ~ b.4.w.4.i.a.f.w.>.] D y % 6 } `.`.Z.Z.Z.P.(.(.W.P.W.G.P.J.W.G.P.",
"b.f.f.f.a.4.] f w f G.(.l.i.l.a.l.w.a.w.w.4.f.,.H - 6 s ,.4.i.f.>.i.w.w.,.D x y % < X.(.G.a.w.i.7.w.i.w.4.w.w.i.7.a.4.w.",
"Z.a.7.f.w.&.R y 6 s G.|.f.4.i.w.l.7.7.4.7.7.i.>.H - 6 y H ,.7.l.7.a.w.7.4.m 8 8 % 6 } |.N.w.w.,.4.7.,.4.w.,.w.i.i.,.w.w.",
"l.l.w.i.,._ b 8 + w b.W.a.i.i.w.l.7.4.&.7.7.i.X.D < % s x R 4._ R U U R U f 6 - - 8 _ `.W.i.7.,.&.i.>.,.i.w.7.7.i.7.4.7.",
"7.w.7.,.} Z f 6 + y 7.`.Z.i.l.,.w.4.4.,.,.4.w.} U 6   8 f y m w w 8 w 6 < 6 +   6 y Z P.`.4.w.>.,.7.4.7.4.i.7.7.f.7.7.4.",
"X.} } ] Z f y - + w @.(.f.f.w.,.&.4.7.w.4.i.w.X.U y O 6 s w % % - % % + % - % + w x f Z.G.,.i.,.i.4.,.>.} X.} } @._ X._ ",
"D D m b y - % + % w R W.b.4.7.@.X.&.f.w.,.>.,.@.U f + 6 s s y y Z H _ } X.&.X.U s x x b.w.] @._ ] ~ U H D m b b b b b b ",
"- - % % - - % % - s b G.W.4.7.>.7.4.,.w.7.@.7.7.U y + 8 y U 4.w.J.(.`.W.Q.Z.>.U 6 s f ,.] R H Z b x f y y w w - 8 - w % ",
"O 6 + < O % - - 8 f f w.(.w.a.&.&.7.i.,.,.7.,.@.D y + O 8 w.Z.|.(.Z.a.b.f.i.X.b % 6 w f s y y w w w w < + + + O O O O   ",
"8 8 8 8 8 8 8 8 w s f @.J.b.>.f.7.&.&.>.&.w.w.~ m s + < w f.OXG.b.4.,.,.,.,.~ y + 6 + + 8 O + 8 + % < - w 8 6 6 6 6 8 8 ",
"b f 8 8 8 w w - < f f R Z.,.f.i.4.f.i.i.4.w.w.] U m % O s f.;Xf.4.,.a.w.w.7.} s % < s b b m x + s f s s f s s s s s s w ",
"i.w.7.i.7.w.7.i.m O s x b.G.i.,.>.w.4.} 4.4.,.X.H m -   s f.-X>.7.l.i.4.i.4.~ y % 6 U f.OXQ.b f H >.i.w.w.a.a.w.w.i.a.i.",
"(.P.(.Q.P.W.b.,.m % s x @.N.7.f.,.&.,.,.,.i.} X.] b % O s f.W.l.a.>.>.w.7.,.U s % 6 w.(.W.i.O b 4.(.|.OXOX`.|.OXOX`.OX`.",
"b.w.7.a.w.f.,.~ m % y f U 7.f.@.a.w.>.,.} } D U D s %   y a.G.i.>.R R U Z b x y % 8 G.P.l.X.O Z l.`.P.N.b.b.N.N.l.b.N.N.",
"l.4.w.w.i.,.@.~ b % 8 b f &.@.~ R U H b Z m x b y %     < 4.&.R ] m 6 < 6 < 6 6 + b W.N.w.&.O Z b.(.l.a.i.w.i.w.4.&.7.7.",
"l.,.w.i.7.a.,.H f - 8 b f x f s x s 8 8 8 %             + _ U 8 < -   O O O   O O Z Q.N.l.@.+ Z f.P.i.w.7.4.7.w.&.@.4.,.",
"a.w.7.,.w.,.>.H s % 8 x x < w O -   O       % < < < < < w Z U Z m b f f x y % < 8 &.|.N.i.X.+ m w.G.7.w.i.w.w.w.4.@.7.7.",
"4.7.X.@.7.w.&.D s % < Z ,.,.@.~ U D Z f 6 - s D ~ ] } @.@.b.N.N.J.J.N.b.w.] w < H N.`.l.7._ + b 4.G.a.4.w.7.4.7.@.X.,.4.",
",.>.7.4.4.7.} m y - < 4.Q.Q.G.Z.N.l.i.X.f f D ,.J.Q.Q.Q.P.Q.`.(.(.(.`.Q.l._ 8 < ~ Q.P.i.i.R + b >.N.i.w.7.7.w.4.4.&.w.4.",
"7.i.7.i.4.&._ x w % < N.Z.i.7.f.a.w.w.X.8 x ~ G.OXJ.J.f.N.l.a.N.b.N.l.i.>.Z 6 < ] `.G.4.i.Z + x R w.X.} ~ _ ] ] @.&.w.>.",
"X.} _ _ ] H b w 8 % 6 N.b.a.f.7.l.7.w.D < x _ Q.Q.a.f.4.,.f.i.7.4.i.w.,.@.b < < ~ |.G.i.w.b + f 8 m b x x f m m m H R U ",
"Z b b f s 8 % % % O < N.i.l.w.i.l.,.@.x - f _ Q.Z.i.i.w.i.,.w.@.4.a.7.4.} x < < _ |.a.f.4.b + b < % % - % - - - - w s f ",
"- % % + + O % - < y y G.b.i.&.b.7.i.] f - y _ Q.N.4.a.,.7.X.,.X.,.,.7.i._ x < - ~ |.N.l.>.b + m 8 < 6 < 6 < % - + + + + ",
"y Z Z U X.@.} } X.D < N.N.@.7.7.a.>.X.m - 6 R W.P.7.,.,.@.>.@.4.a.@.,.7.@.x < < _ |.f.l.a.x + b s y s x x x x x x 8 8 6 ",
"U ,.Z.(.(.`.Q.W.Z.@.8 b.Z.f.>.@.7.a.X.Z < < R J.W.a.4.a.4.f.] @.,.@.7.w.] f % < ] W.w.4.l.x + D l.Q.G.w._ Z x f x s s x ",
"~ b.`.Q.W.Z.b.f.f.R % J.a.w.f.X.4.l.,.D 8 < U b.Q.Z.,.,.} ,.} @.f.7.a.&.~ s - < ] Q.Z.4.,.x + U W.>.i.W.|.(.`.|.|.w.s b ",
"~ OXZ.l.i.4.i.i.7.} 8 G.b.f.4.l.f.,.w.H 8 - s 4.OXG.b.i.4.l.&.f.} @.w.4.H f - 6 } P.i.f.4.x + U (.,.4.l.w.,.a.w.&.@.s x ",
"~ (.N.7.4.i.i.7.w.&.6 G.b.,.i.f.7.a.@.H w O w @.|.P.l.i.7.,.@.,.X.>.i.@.H w % w } P.N.l.>.b + U `.l.i.,.i.f.4.i.w.R w s ",
"~ OXf.w.i.w.l.7.7._ - N.Z.a.l.,.7.w.w.D w % y ~ W.W.b.4.i.>.,.7.,.a.7.,.m < - w ] P.f.7.i.x O H P.a.i.l.7.,.i.w.a.R w s ",
"~ |.b.a.w.7.w.a.7.R < l.W.&.w.>.f.a.>.D y O 6 Z f.W.N.4.>.7.,.4.i.,.,.] x - + w ] G.7.4.x x % D G.f.i.i.w.w.,.i.a.U w s ",
"~ `.N.w.f.i.i.w.i.~ - w.OX,.i.i.,.4.>.H y   < x >.W.Z.,.w.&.4.@.&._ ~ m s - - y H @.~ x w w w f 7.>.@.>.@.>.&.] >.H w w ",
"~ OXN.a.i.w.w.w.w.~ < >.`.4.7.4.w.4.4.U y O - s U w.a.&.~ D b w 8 8 < < < % < w b s w y s f f w x w 8 y y y y w y w 6 8 ",
"~ |.l.4.i.i.7.w.7.~ - _ Q.l.>.l.7.,.4.H w   % y f D H m y 6 - O % O %   + + - s x b f x x b x f 6 < - - - % - - - - - 8 ",
"~ |.N.i.7.7.i.i.w.~ < Z `.l.w.i.,.w.>.H w O + w f s < 8 - - - 8 w 6 8 6 8 w 8 s x m D H H H H H H H D D D D Z Z Z Z w y ",
"~ OXb.w.w.7.i.i.,.R < y `.l.7.>.&.i.,.U y O + 8 b H H D H D H U U U H R U ~ _ _ } @.w.7.a.i.f.a.f.i.a.a.a.a.f.a.a.@.y x ",
"~ Q.b.a.i.w.w.i.} y + y `.l.4.w.>.,.>.H f % O - D w.f.l.a.b.a.l.l.a.l.f.f.l.l.N.P.Q.|.OX+XOX*X+X+XOX+X+X|.(.(.Q.b.} < x ",
"~ Q.N.i.a.w.f.w._ < - y (.i.a.>.7.,.4.H f <   + D b.P.+X+X*X+X*X|.|.*X+XOX*X+X*X;X-X-X+X+XQ.Q.Q.`.Q.W.(.Q.W.Q.W.4.H + x ",
"~ J.Z.a.w.i.4.4.R < < y W.b.l.@.f.,.>.D f <     Z N.Q.W.`.W.`.Q.Q.G.Q.Q.J.(.Q.W.J.G.b.l.a.w.b.a.l.4.7.f.a.a.f.l.@.Z 8 y ",
"Z J.,.w.i.@.] ] U < < s G.4.7.a.,.a.&.U x - O   x a.`.J.i.7.4.7.w.i.f.w.b.a.w.i.l.l.l.7.X.w.,.f.f.4.4.i.w.f.a.7.] Z % 8 ",
"x Z.f.f.w.X.Z m 8 O 6 s f.l.>.7.f.4.X.R f <     8 i.OXP.7.4.4.f.4.7.4.i.i.,.7.a.l.4.w.4.7.4.,.&.,.i.7.w.w.i.w.a.} Z w 8 ",
"f @.X.] Z m m m 6 < w w ,.i.f.&.4.>.R H f -     O >.|.`.N.l.&.4.4.>.@.>.7.i.7.,.a.i.@.&.4.f.&.7.a.>.} @.&.4.7.4.} Z + 8 ",
"s 8 O O < b b b 6 < w s ~ U D U U D D b f -     - &.Q.`.w.&.f.7.a.>.7.i.&.X.,.i.>.a.7.f.4.4.f.&.>.@.4.>.7.w.X.X._ Z % 8 ",
"b m x s 6 O O O - 8 y w 8 6 8 6 6 6 8 6 8 -     O R J.Z.f.,.,.a.>.w.&.,.4.,.,.4.7.&.a.&.,.@.7.4.,.4.a.>.&.4.>.X._ Z + 8 ",
"f b Z Z Z Z x w % 6 f w w O   +     O   O + O O < U >.R U U H U U ~ w.4.a.4.>.@.X.>.,.X.>.,.i.&.i.,.4.7.&.,.>.4.] Z % 8 ",
"f ,.Z.Z.Z.b.a.4.~ H U x s < % w + % 6 + - < < < 6 x f y w + 8 % 6 - m R R } } _ _ _ ~ _ _ _ _ _ ~ _ _ _ ~ _ _ _ U f % 8 ",
"x N.Q.Q.Q.W.|.(.J.J.f.&.] _ R D H D Z m m b x x f Z x f y y w w w 6 - y f f f f s x s f y f s s s y y s s y y y s + 8 w ",
"x N.(.b.f.f.J.W.W.(.Q.J.J.G.J.J.J.G.N.b.l.a.w.4.&.@.] ] ~ R D s f w 6 < 6 < < 6 - 8 + < % < % O + O + O + O O + % % w s ",
"x b.|.f.a.f.w.w.a.f.N.W.G.P.J.P.J.W.P.J.W.J.J.J.J.J.P.J.J.N.X.s x f y y w 8 8 6 8 w - % w - 8 - 8 < 6 < < 6 < 8 w y s x ",
"x N.(.l.i.i.>.7.w.4.,.a.>.w.i.4.&.a.a.&.7.4.f.a.b.N.P.P.J.i._ < y x Z X.,.X.U y w y s f s y y w y y y y y y y y s x x b ",
"x b.P.f.w.i.>.4.w.4.i.l.7.>.4.7.} 4.,.>.,.7.i.w.i.4.a.b.a._ m + w f _ W.J.P.G.f.w.>.D b x &.i.w.7.i.w.7.7.4.@.} ~ m f m ",
"f l.7.X._ } ~ _ X.] } X.} _ ~ } _ ~ _ ] ] } } ] } ] X.X.} H b - - s ] Q.b.Z.P.W.W.G.~ m R (.G.J.G.N.Z.N.Z.N.f.a.b.&.8 b ",
"x 4.R f s f s s f f f f s f f s f s f f f f f f f s f s f s y 8 O < ~ G.N.Z.l.>.7.7.~ x i.G.7.f.7.f.f.w.w.i.a.7.b.} % b ",
"f f < + % + % + + % + % + + % + + + + + + + % + + % + + + + + +   % m D D H _ R ~ _ H x (.a.w.a.f.f.w.a.i.w.f.7.7.D + m ",
"b s 6 6 - % -   - % O < O   6 O 6   + <   % -   < +   6 O   6 O < + s x f w < - % - % w R H H H H U H H H U U H D Z + b ",
"b m x x s y s s s s s w 8 6 8 8 8 8 8 8 8 8 8 8 8 8 6 8 8 8 w 8 8 8 y b b x y 8 6 8 8 w x b + + + + + + + % + % + + O b ",
"w w w 8 w w 8 w 8 w w 8 w 8 w 8 w 8 w w 8 w 8 8 w 8 w 8 8 w 8 8 w w 8 w w w w 8 8 8 w 8 w w w 8 8 w 8 8 8 8 8 8 8 8 8 w "
};
