/* XPM */
static char *mmossy[] = {
/* columns rows colors chars-per-pixel */
"60 60 234 2 ",
"   c #34340D",
".  c #3B3B08",
"X  c #2B2A17",
"o  c #323114",
"O  c #393817",
"+  c #242424",
"@  c #2B2B23",
"#  c #2C2C2C",
"$  c #35342A",
"%  c #393826",
"&  c #343434",
"*  c #3A3A3A",
"=  c #3C3C31",
"-  c #403D0E",
";  c #444301",
":  c #575404",
">  c #4E4C14",
",  c #464518",
"<  c #575519",
"1  c #504E1C",
"2  c #605D10",
"3  c #696605",
"4  c #716E01",
"5  c #726F0A",
"6  c #757202",
"7  c #797600",
"8  c #7D7B01",
"9  c #74730A",
"0  c #696717",
"q  c #716E12",
"w  c #72711A",
"e  c #7A7816",
"r  c #47462A",
"t  c #5E5B27",
"y  c #585629",
"u  c #4B4A38",
"i  c #545333",
"p  c #58573B",
"a  c #504F3B",
"s  c #605F37",
"d  c #615F2F",
"f  c #656424",
"g  c #6D6B23",
"h  c #6B692D",
"j  c #696625",
"k  c #716F27",
"l  c #7A7A24",
"z  c #7C7B2A",
"x  c #777527",
"c  c #646335",
"v  c #6B6A34",
"b  c #6A6A3A",
"n  c #64643C",
"m  c #706F3B",
"M  c #757433",
"N  c #7C7B3C",
"B  c #77763B",
"V  c #444444",
"C  c #4C4C4B",
"Z  c #4B4B46",
"A  c #545443",
"S  c #595944",
"D  c #58574C",
"F  c #535353",
"G  c #5C5C5C",
"H  c #5C5C53",
"J  c #504F4E",
"K  c #6D6C44",
"L  c #686748",
"P  c #777648",
"I  c #6A695C",
"U  c #676757",
"Y  c #797958",
"T  c #706F4E",
"R  c #646463",
"E  c #6C6C6C",
"W  c #6C6C61",
"Q  c #727264",
"!  c #72726B",
"~  c #7C7B6D",
"^  c #7A7968",
"/  c #737373",
"(  c #7C7C7C",
")  c #7A7A73",
"_  c #817E00",
"`  c #817E0A",
"'  c #827F29",
"]  c #807E49",
"[  c #807E56",
"{  c #807F74",
"}  c #848401",
"|  c #898700",
" . c #8C8B02",
".. c #83830A",
"X. c #8B8A0C",
"o. c #948F0D",
"O. c #908B00",
"+. c #949302",
"@. c #9A9602",
"#. c #9D9B00",
"$. c #9C9B0C",
"%. c #9B960D",
"&. c #878617",
"*. c #979517",
"=. c #938D12",
"-. c #A39E02",
";. c #A39E0B",
":. c #A39E10",
">. c #A4A101",
",. c #ABA500",
"<. c #AEA800",
"1. c #A9A50B",
"2. c #B2AC00",
"3. c #B3AD0A",
"4. c #BAB400",
"5. c #B9B306",
"6. c #AAA515",
"7. c #B2AC17",
"8. c #BBB416",
"9. c #8B8B2D",
"0. c #868428",
"q. c #999627",
"w. c #848331",
"e. c #89873B",
"r. c #939235",
"t. c #93933C",
"y. c #9C9A38",
"u. c #918C2B",
"i. c #A19D28",
"p. c #A29D35",
"a. c #A6A329",
"s. c #B2AC2A",
"d. c #B9B427",
"f. c #A8A437",
"g. c #BAB536",
"h. c #C3BC00",
"j. c #C3BC0C",
"k. c #C6BF13",
"l. c #C2BC24",
"z. c #C3BD2A",
"x. c #C3BD36",
"c. c #CBC301",
"v. c #C8C005",
"b. c #D2C902",
"n. c #D8CE07",
"m. c #DDD200",
"M. c #CDC418",
"N. c #DBD114",
"B. c #D3CB2C",
"V. c #EBE436",
"C. c #8B8A45",
"Z. c #83824B",
"A. c #868649",
"S. c #908D44",
"D. c #95944A",
"F. c #989748",
"G. c #8B8A5C",
"H. c #878658",
"J. c #949354",
"K. c #9C9B52",
"L. c #94935B",
"P. c #9A975A",
"I. c #928F57",
"U. c #A19E46",
"Y. c #AAA543",
"T. c #A9A749",
"R. c #B4AF42",
"E. c #B7B349",
"W. c #A4A452",
"Q. c #A9A657",
"!. c #B2AF5A",
"~. c #BAB556",
"^. c #82826B",
"/. c #8A8965",
"(. c #929264",
"). c #9C9B6B",
"_. c #9D9C65",
"`. c #848476",
"'. c #8B8A75",
"]. c #84837B",
"[. c #8B8B79",
"{. c #888776",
"}. c #949372",
"|. c #989777",
" X c #908F73",
".X c #A09E78",
"XX c #A29F66",
"oX c #A5A366",
"OX c #A9A668",
"+X c #B9B667",
"@X c #A7A577",
"#X c #B7B577",
"$X c #B0AD72",
"%X c #C2BD56",
"&X c #C1BE73",
"*X c #C7C242",
"=X c #C9C457",
"-X c #D7D151",
";X c #C9C674",
":X c #CEC96C",
">X c #848483",
",X c #8B8B83",
"<X c #8C8C8C",
"1X c #939383",
"2X c #9C9C83",
"3X c #94938B",
"4X c #9B9B8E",
"5X c #989786",
"6X c #949493",
"7X c #9C9C94",
"8X c #9B9B9B",
"9X c #A8A787",
"0X c #B0AE81",
"qX c #B7B488",
"wX c #A8A797",
"eX c #B6B598",
"rX c #A3A3A3",
"tX c #ABABAB",
"yX c #ABABA1",
"uX c #B9B8AC",
"iX c #B3B3B3",
"pX c #BBBBBB",
"aX c #C8C585",
"sX c #CECB8E",
"dX c #CBCAA7",
"fX c #C2C2B4",
"gX c #E0DEB1",
"hX c #C3C3C3",
"jX c #CCCCCC",
"kX c #CECDC2",
"lX c #D7D7C6",
"zX c #D3D3D3",
"xX c #D9D9D9",
"cX c #E1E1E1",
/* pixels */
"# & & # & # # & # # & & $ $ $ $ * * & * * & $ $ & # # & & & * * * & % $ $ # # & # # # & # # & # # # # & # # & # # # & # ",
"F F F F F F F F F J tX-Xc.c.c.v.zXzXlXlXxXaX3.5.aXH & ( rXzXzXlXzXsXv.v.i.) >XR # * C A A a A C C F F F F F F F F F F F ",
"G U G G G G G F J J tXzXd.2.2.;.7X$Xc.B.jXpX=X4.K.V & ( pXiX,X7.L.7.+.+...c G V @ & U ;.<.#.=.>X<X{.Y K A Z S s D F F F ",
"8X6X|.6X6X6X<XG * C iXzXs.<.,.5 2Xc.7.Q.pXiX).$.N & & <XzXrX<X[.g.^.9 8 f R R V + & X.c.n. .g <XpXaXc.b.r.R a.c.K.,X8XrX",
"hXeX7.9X6X6X>XF * C tXjXa.+._ k 5Xg.K.wX.X<X>XS.v & & E iXXX(.6XrX6XL 9 s R G V # # X.m.#.g / 4XaX;X8.b.0.G q.5.| I iXpX",
"tX4X%.' / ( ( C * C iXjXa._ 4 / <X8XrX).r.>X>XH.L # & V <X5.+.@X<X6X{ p R G C * # & ..h.4 E ,X%Xn.s.Z.+.l H N w 0 D I.,X",
"iX7XP ( 6X>X/ V & V tXzXW.B B <XrX8XtXG.r.8X<X>XE # & V ! S.D.U.8X8X6X( ( F * * # & 9 } h ) ].s.j.F.P 7 j R E E G E $.! ",
"rXtX<X>X<X( F & # V tXjXrX<X{ 6X~.8XtX`.(.6X8X6XR & # V G ( <X/ / R R E R V & & # & B v ) >X8X1XK.<X{.v p E >X<X>X<XZ.R ",
"6X8X6X( E G C & + * tXxXiX<X<X,Xv.W.>X<X<X6X8X<XE & + V C J J V V & * * * # # # & * / <XrX,XK.<X,X>X<X/ R >X6X<X<X6X6X>X",
"( ( ) / G V * & # * iXcXrX( 6X3Xv.*.( 8X6X8X8X6XE * + & V * & # # @ # + # # # & * & / tX6Xt.b <X9XT.>X>X/ >X<X>X( <X>X/ ",
"G G F F V # + + # * 6XzXtX6X>Xd.2.*.( 6X<X<X<X>XR V + & V V V V G ( ( ( <XrX[ r & * E tX<X[ R / (.*.F R R R G F F G J J ",
"# # # # + # # # # Z ( jXjX8X{ _.$.Y <X6X6X<XJ.G.E V + & V R <XB.-XzXzXjXjXxX=X` r * F <X) E R F p < * V V * V & & # & & ",
"# # # # # # # # & C E rXjX6X8X<X X<X8X<X6X<X{ W G V + # * 7XV.b.a.8XrXtXrXOXD.0 o & * Z V V V * * = * & # # + + + + + + ",
"& & & & & & * & & Z F ( hXtX6XrX6X( 7X<X>X8XL.v F V + # V rXv.X.{.8XoXN.E.D.M f r & # # # # # # # # # & & & & & & & & & ",
"F V * * * * & * * C C R iX6XrX7Xj.*.( 8X6X8X] d R F # + V rXm.&.>X).b.g.[.C.h y % V Z F F J C + Z V V V C V Z Z V V C V ",
"8X6X4X8X8X4X7X6XG + V C rXpX&.,X+.0.8X( <X<X( E G F # + V n.n.( >X#Xm.s.( ] d V * V j.5.2.R F Z R ,X7X4X8X7X8X6X8X4X4X8X",
"dXh.d.lXsX5.w.E J # V C >XiXw R 6XE >X/ >X6X( ( / F + + * M.( <X>XL.X.h ( 6XE V & * o.<...G # F <X;Xc.v.:X=XoXrXd.c.h.kX",
"v.>.=.2.,.| f R J + V C R <X/ E <X>X/ / E ( R R G Z + + * ( <X( }.s.G G F J J V + * X.} G G + G @Xc.v.U.f.5.A.8XB.>.| ! ",
">.t.9X,.+.7 f G J # * F Z >X>XE / G R R R F F J V # + + # 8X>XR / G * & & & & # + F 9. .~ J + F .Xd.U.,XF.*.G.6Xd.>.| ) ",
"t.8X|.,...0 n G V # * F C J Z V & & # & & # + + + + + + # E R & $ # + + + + + + + R <Xe.6XF + G 8XrX<X8X_.G.>X6XE.;._ ,X",
"8X8X5Xu.s R / E V # & J J * # # + + + + + + # # # # $ # & F E F > > > < i V & # * <XiX8XtXG + F 3X8X9X@X7X6X8X6XrXD.x ( ",
"<X!.Z.) / >X( G V + & G e.z g < F G R F & + V n z ' ' l ].iXuXuX2.2.2.<.*.N r & G iXjXhXiXR @ F >X8X0X$X8X8X$X9X6X6X<X8X",
",X2.*.6X<X<X( F * # & C.5.h.>.C.>X8X6X( C V n *.5.a.T.!.uXpXjXuX3.a.<.>.#.} > # E hXpXhXiXp.+ D Q.rXwX8X@X~.R.@X<X8XrX8X",
"3XX./.6X<X,XE J * # # *.,.#.N / / E / G * C T &X+X}.J.7X~.wXrX4XI.}.&.9. .4 O # / :XwX6XiX2.+ s 6.Y >X).M.5.0.P `.>X( >X",
") K / / / R C * * # # o.+.M R ].l 0.b J & C / hX;XqX).R.;.7Xg.R.7X|.9.L.e f O $ ! s./.<XrX8 + a 3 r F h } 4 3 1 F G F G ",
"F F J V V * # # + @ & o. .I <X6XZ.} 0 J # V / jX-X#XE.3.Z.7Xv.*.rX7X}.<XY i o # / H.].rXjX: + V % # + @ o o o @ # * V C ",
"# # @ + + + # + & V V eX[ ,XrX9.{.8 0 J # V ! hX-X@Xd.| ~ rX@X.X6X}.q.A./ i X # q.dXyXhXpXa + V & & & # # # + + + + + # ",
"V G G R ( ( ( ( ( G # pXrX6XrX..,XI Q A o & / hX=X@Xa.8 ~ 8X>X8XrX).>.w.E r o # =.gXhXhXtXF + Z * * & * & & & & & & & & ",
"R <X9X1.f.6XrXrXrX( & pXiXhX6X9 rX>X) S   & E jXfXg.1.9 ~ 6XrXrX8X@X,.w./ r X > O.dXpXtX7.J + Z 5 +.X.@.;. .8 p C V V J ",
"E eX3.,.l >XrXtXtXE # pXiXrXrX) <X( >XS   & R <XE.<.8 T / rX8X8X>X|.>.z G r   & ` dXxXd.>.F + J Y  .} #.@.>.2.,. .[.V F ",
"R <.+.l / 6XQ.3.e.E & pXzXtX8XrX&.6X6XS   @ V ( U...[ ].,X6XrX( 6XH.>.z G u # # e dXiX7.6 F @ F 3X/ Z.@. ._ 6 4 5 ^ V J ",
"W 1.q./ >X3XC.#.P R & pXrX6X8XrX<X<X/ S   + V >XjXhXz.h.#.,X( >X>X/.>.x F * + : /.hXfX6.: C + R zXrXoX .m / c U / R * C ",
"R ( 6X8X<X{ F. .m G # tXpXrXrX@X9X8X( S   + * / hXjXx. .q ) 6X8X3XOX+.M F & + 2 /.hXtX&.4 . + G hXrXL.| P >X6X( <X/ * C ",
"E iXrX8XrXoX#.} b R & tXjX>X6Xh.$.>X>XS   X & G rXhXr.q I ( 6XrX(.*.w.R F # + * / iX6Xq : ; # G pXrXXX .B >X<X<X8XR * V ",
"E zX8XrX<XG.6 q T R & 6XzX6X8Xf.e.6X6XS .   & C <XhXI.I ( >X6X`.M R R E F # # * R >XE 3 ; > * F 6X>XY e K / ( E ( G * & ",
"E zXtX4XP.A.M Y ( R # >XzX8X6X6X6X>X>XD ,   # V R 8X8X( ( R R R Z S R G V + & V J V * r > * V C C V * V u V * V V V & & ",
"E zXtX2Xy.G./.S.'.R # / jXrX<XtX6X( >XR u   # V C G R F F * * * @ O V V * # & V C C C * * V Z V $ & # # # + # @ # # # & ",
"E lX!.oX6X|.a.#.N G & F jXtX8X8X<X( 6X/ u O + * C V & & & # # * * V V Z J C J G G R R R R f f f c R G G G G G G G F * V ",
"E =X,.q.8XP.@.8 m G & V jXtX8XS.>X<X<X! i . + & C v w w w w w w h R E ) >X>X<X6X6X7X8X8Xf.<.,.#.u.rX@Xf.).oXp.e.5X>XV F ",
"I <.o./.8X5Xw.4 b Z # V jXtX<X ./ 8X( R i , + # y 1.5.4.4.4.4.5.1.S.rXtXrXtXtXtXiXiXpX%X5.#.#.*.0XeXB.x.eX%X4.-.y.^ & C ",
"R ,.&.>X8X<X{.^.I & # V jXrX8XK E 6X>XR a . + # < <.4.4.4.5.4.4.<.q.iXiXtXiX&Xf.9XtXyX8.+.).L.5.x.Y.P.9XqX7.<.#.] G & V ",
"I ,.&.<X8X8X6X8XE & # V hXrXtX8X6X<X6XG u O + # % o.5.>.>.>.>.>.#...Z.rXiXtXT.>..XrX8XeX}.yXd.5.6./.<XrX|.[ i.e.! G & * ",
"J X.^.6X8X7X8X( G & & V iX8X<XrX6X<X>XR Z # X # $ Y }. X$.| #.| } 4 k <XiXiX3X^.3XiX8X8XrXz././.^.8XrXrX6X>Xf.Z.! G # * ",
"C [.<X<X<X/ R G * # & V rXtX<X6XrX<X/ G Z # + # & <XjXpX:.6 6 6 q Q ^ 6XiXtXrX8X6X8Xz.k.7X X( ) <XoXM.!.tX6Xp.Z./ F & * ",
"C ( ( / R F F F & # & V <X8XrX<X<X>XE R V # + # # <XzXzX&.Q ! ! ! >X6XL.W.tXtX6XrXB.0X1X<XrX<X<X8X#X>.D.rX8X]./ / G + * ",
"Z & # F F C F J & # V Z E R R R R R G F C # + # & ( jXzX( ( 6X[.2.>.r.rX<XrXrXrXtXyX3X1.wX7.rXrX0X$.C.rXrX8Xf.3.Y H + & ",
"F F C # # + + + # & V * * & & & # & & & & # + + # E pXiX<XtX8XwX,.@.x 8X8X8X8X6X3XM.2.e 3XtXpX8XrX8X8XrX3X<XrX<X/ G + * ",
"C F H p y u = * & * Z * & + + + + + + + + + + + # R >XE R R R U 5 3 B <X<X( [.rXB.1.e 4X<X8X<X<X6X8X>X<XQ.W.<X<X/ G + * ",
"C ,X+Xb.c.4.f.H.b H U J V * & # # & & & # $ # & & F C * & # & # # & F R E / C.).P 0 W / E R / ( ( ( / >X>XE E / R J + * ",
"J wXb.m.j.d.d.s.f.9X|.J.C.N M f t t t t y u C C F F C C V * * * * * & V Z C Z V V Z Z V C V V V V V V V V V V V V # # * ",
"J wX*Xz.a.8XrXrXtXpX+X*Xx.g.2.4.,.,.,.,.#.&.^ ( >X( / / E E R V C * & # & # & # # # # # # # # + + + + + + + + + # # * V ",
"J tXpXwXOXtXpXtXtXiXpXtXrXrXU.F.t.t.t.q.+. .C.<XiXpX;X=X8XiX>XV J C V V * * * & & * & # & # & & & & & # & # & & * * C J ",
"J tXpXpXtXpXqX~.K.wXiXpXpXpXiXrXT.I.6X{.A.C./.8XtXiXB.4.[.8XE & V F a g x w c V V * V C C < w 0 < < r r V V * V C J J F ",
"J tXpXhXtXrX!.2._ |.iXhXhXpXiXiX;X$XtXrXrXrXtX8XrXtX#XK.<X/ F + * Z c @.+.@.B <X8X<XG F x -.h.<.=.0.q.^.>XJ.H.( E F C F ",
"J rX8X<X( / ' 8 f { <X>X<X<X>X>X<X<X<X6XrXtX8X( ( <X>X/ / G J # # V D 0.} 8 v rXhXpX/ F G.K.K.D.H.[.0XrX$Xd.L.8XiX>X* J ",
"C 6XE F V V Z r u C C Z C C C V V V C J F F J V V V V Z V V V & + & U (.8 g ^ >X6X8XE J ,X>X6X<X2Xd.~.rXT.@.P <XiX/ # F ",
"Z C # # + + + + + + + + + + + + + + + + + + + + + + + + + + + + + & C p : y R R E E R C E / 8XwXM.4.y.6XP.w.Q ( 6XG + F ",
"F V & & & # # # # # # # # # # # # # # # # + # # # # # # # # # # # # * r ; , & & # & # * J F U w 0 L U b q t G G G G + F ",
"F F J C V V V V V V V * * & & & * & & * & * * & & & * & & & & & & * * Z V V V & & & & * C V + X X @ + + + + + # + + + J ",
"* * * * & * * * * * * * & * * * & * & * * & * * * * * * * * * * * & * * * * & & * & * * * * & * & & * & & * & & * * & * "
};
