/* XPM */
static char *purplestone[] = {
/* columns rows colors chars-per-pixel */
"60 60 205 2 ",
"   c #3C2E16",
".  c #3D261E",
"X  c #3D2A1B",
"o  c #3E3016",
"O  c #3F063A",
"+  c #3F0838",
"@  c #3E0C35",
"#  c #3D1929",
"$  c #3E2420",
"%  c #3C352A",
"&  c #3A3630",
"*  c #3B3937",
"=  c #422D1D",
"-  c #413317",
";  c #443319",
":  c #4A351C",
">  c #4B3919",
",  c #533C1C",
"<  c #593F1F",
"1  c #40162E",
"2  c #431B2D",
"3  c #491F2F",
"4  c #41043D",
"5  c #450A3D",
"6  c #490E3D",
"7  c #441533",
"8  c #451930",
"9  c #4B1C33",
"0  c #4C143C",
"q  c #4D1839",
"w  c #471337",
"e  c #511E36",
"r  c #541B3C",
"t  c #581C3E",
"y  c #432424",
"u  c #452B21",
"i  c #4A2C24",
"p  c #462328",
"a  c #4B252C",
"s  c #4D2A29",
"d  c #522C2C",
"f  c #582B2F",
"g  c #4D3222",
"h  c #543424",
"j  c #563921",
"k  c #5C3B25",
"l  c #573228",
"z  c #5B342B",
"x  c #5E3929",
"c  c #583527",
"v  c #4E2232",
"b  c #542533",
"n  c #592736",
"m  c #542930",
"M  c #5A2A34",
"N  c #55203A",
"B  c #5B243B",
"V  c #5E2938",
"C  c #5E3131",
"Z  c #613D26",
"A  c #63352F",
"S  c #633B2B",
"D  c #6A3E2D",
"F  c #602D35",
"G  c #61253D",
"H  c #632B3B",
"J  c #643334",
"K  c #693535",
"L  c #653830",
"P  c #6B3A32",
"I  c #6C343A",
"U  c #6A3438",
"Y  c #713C35",
"T  c #72343E",
"R  c #7C3D3F",
"E  c #5C401F",
"W  c #5E4120",
"Q  c #634422",
"!  c #694624",
"~  c #6D4824",
"^  c #6C432A",
"/  c #714B27",
"(  c #71452C",
")  c #754C28",
"_  c #7B4E2A",
"`  c #744133",
"'  c #420042",
"]  c #4A0546",
"[  c #4D0B44",
"{  c #470048",
"}  c #4B004B",
"|  c #510E45",
" . c #51044E",
".. c #540B4B",
"X. c #5A0D4E",
"o. c #4F1240",
"O. c #531343",
"+. c #591447",
"@. c #551842",
"#. c #5B1B44",
"$. c #5B134B",
"%. c #5E1A49",
"&. c #551248",
"*. c #4F0051",
"=. c #530053",
"-. c #590456",
";. c #570951",
":. c #5C0B54",
">. c #570058",
",. c #5B005B",
"<. c #5E0A59",
"1. c #5E1351",
"2. c #601E46",
"3. c #631B4B",
"4. c #691E4E",
"5. c #61174F",
"6. c #610F55",
"7. c #61055E",
"8. c #640C5B",
"9. c #6A0E5D",
"0. c #631354",
"q. c #691557",
"w. c #671951",
"e. c #6E1B55",
"r. c #6C145B",
"t. c #6F185A",
"y. c #711D56",
"u. c #73165E",
"i. c #741B5B",
"p. c #791F5A",
"a. c #5E2340",
"s. c #632343",
"d. c #6A2546",
"f. c #6C2B42",
"g. c #652049",
"h. c #6B234A",
"j. c #672941",
"k. c #722E45",
"l. c #752A4B",
"z. c #75294C",
"x. c #743243",
"c. c #7B3447",
"v. c #762552",
"b. c #7A2555",
"n. c #7A205A",
"m. c #5F0060",
"M. c #630064",
"N. c #680566",
"B. c #660961",
"V. c #6B0B64",
"C. c #660069",
"Z. c #6B006D",
"A. c #6E0968",
"S. c #710F64",
"D. c #70056E",
"F. c #740B6B",
"G. c #7A0C6F",
"H. c #6D1060",
"J. c #761364",
"K. c #7C1666",
"L. c #7B1B60",
"P. c #7B1269",
"I. c #6E0071",
"U. c #730075",
"Y. c #790575",
"T. c #770970",
"R. c #7C0B72",
"E. c #760078",
"W. c #7B007C",
"Q. c #7F0878",
"!. c #7F1070",
"~. c #454442",
"^. c #484745",
"/. c #504E4C",
"(. c #51504E",
"). c #585755",
"_. c #605F5E",
"`. c #62615F",
"'. c #81344C",
"]. c #842E55",
"[. c #80156C",
"{. c #821B67",
"}. c #820D75",
"|. c #81047D",
" X c #82087A",
".X c #890C7E",
"XX c #8C1478",
"oX c #90127E",
"OX c #852065",
"+X c #872068",
"@X c #8A2367",
"#X c #7F0080",
"$X c #820083",
"%X c #8A0883",
"&X c #8C008C",
"*X c #94078E",
"=X c #950A8B",
"-X c #900B85",
";X c #930093",
":X c #9B009B",
">X c #9A0596",
",X c #A40C98",
"<X c #AB00AB",
"1X c #A500A5",
"2X c #B300B3",
/* pixels */
"Z.I.C.' ' ' ' } C.W.C.C.{ ' O ' ' ' } I.I.Z.A.Z.m.] ' ' ' ' 4 4 ' { m.E.$XW.M.,.{ ' ' O ' O ' ' 4 4 ' ' { ,.,.-.-.-.-.;.",
"k  X#XC.{ ' } M.E.U.I.m.,.' ' ' ' { U.&XOX! ! Q g.,.{ ' O ' ' ' =.,.U.$X$X$XE.W.U.*.' ' ' 4 ' O ' { ,.,.C.E.|.x.! ! / ~ ",
"! S R.$XE.,.} m.C.m.C.Z.C.,.' ' =.m.&XXX! D C L x $.,.=.' ' *.*.=.,.U.$X$XW.E.U.Z.,.' ' ' ' { ' { ,.,.m.Y.|.x.~ ! ! Q D ",
"J W C W.I.,.,.,.,.M.C.,.,.' { *.=.m.$XXXU e.U.I.j.q.,.=...O.:.m.,.,.I.W.E.U.C.<.&.$...O.0 O.[ w ] *.>.m.W.l.! ~ Q z , <.",
"#XW s W.W.C.,.,.m.C.C.M.m.,.m.-.,.,.I.#XE.Z.I.E.f.5.,.&.k Q Q P.I.,.m.I.F.$.&.z Q ! Q Q j < , > g [ *.m.E.i.^ ! : :.c U.",
"Y.j.z W.#XI.I.Z.E.#X#XP.Y.E.E.E.m.m.,.Z.U.U.#XU.t O.+.Z ~ Q Q x $XC.-.O.B , W ! ! ~ ! Q < , , : , g [ ,.I.W.f.Q ; V.c U.",
"E.Q.C E.E.I.E.F.n.!.K.L H.C.E.E.I.U.m.m.m.m.I.C.b | A Q Q b N x U.<.3 , W / / / / ~ < , > 2 , 9 v < u [ ,.E.l.Q ; T.x M.",
"W.Q.L U.C.U.F.I / x.P W B.,.m.C.C.U.C.,.m.,.M.C.b $.J E N Z.m.h U.:.> Q / _ _ _ ) ~ > a > } h M.:.h a v =.C.f.W : N.l ;.",
"M.D.z M.C.#Xn./ / Q W W B.m.>.m.,.M.,.,.M.M.C.I.G $.C W 8.$XU.i A.N < E ! _ _ ) / ! : ] ; >.c W.J.M &.v =.,.n < ; A.l  .",
",.<.s C.U.&XOX/ ! W W > B.-.C.Z.n n n b O.m.m.C.B O.d r U.E.U.u -.> W J T _ / / Q E ;  .o.-.J.Q.H n $.i [ =.$.l ; V.+.*.",
">.;.s I.W.&X@X~ W E > > B.-.I.V ! ! Q Q B M.,.,.X. .i 8.W.M.Z.= 5 ; , G v._ ! ! < , , p U.,.Q.V , k l : @.,.>.s ; X.,.*.",
",.;.a U.&X:X%Xs.> ; @.a ;.C.m.! ! S 4.Q k.U.m.>.} } y ..,.=.=.5 { r , B p.! Q < t 0.c : m W.Q., > > > - @.I.,.m ; ] =.} ",
"=.;.a E.;XP.Y ^ W > [ p [ >.z ! x V.I.y.f.W.m.{ ' { ] } ,.=.} =.-.| , #.p.Q < r 7.W.A.h ; J P > ; b w.> @.U.C...[ } } { ",
",.=.-.U.[.^ Q j.V.N.Z.p ] *.W ! k M.W.q.d.W.m.} { } >.,.C.W.W.C.=.6 > B p.H b 5.W.$X$XD < Q < y N.C.1.- @.W.I.m.=.=.} { ",
",.,.,.U.K.! s.U.;X:X&Xv + } k ! x M.W.+.B C.=.} v : : ..C.I.I.Z. .6 a N.p.v.h.t m h ^ ! ~ < u I.#XC.m.%.: $.I.m.{ { { { ",
"=.,.,.I.K.k.E.;X&XU.C.$ + } ^ #Xh ,.C.O.a =. .n ! ! Q W > -.Z.>.] 6 a Z.p.b.h.> W ~ ~ ~ ! ! , u I.C.C.e.: o $.-.} { { } ",
">.,.,.I.t.f.$X&XZ.,.{ $ +  .P $Xs M.C.| 8 >.s._ _ _ _ ~ Q X.,.C.{ 5 v E.I.Z.3.Q ~ Q ~ , , , , a I.W.Z.I.+.: = [ { { } ,.",
">.,.,.I.r.h.$XU.C.W.M.y 5 =.W.$XU.W.M.=. .C.b.( U U J J ^ , .. .*.0 v I.C.-.f Q ! < > = , . , y I.M.,.Z.E.@.w { } =.=.,.",
",.,.,.,.Z.E.W.m.Z.U.C.q  .,.U.W.W.M.>.*.,.A.n.P.:X:X&X.Xf., > = =.[ v U.Z.@.h W < ; y ,.f ,.> y C.m.C.C.E.#.w } ,.,.,.I.",
"r.E.I.m.,.U.Z.,.M.C.E.U.M.C.U.C.M.>.=.,.A.k.@X<X:XXXJ.x r.j : : ....v C.7.,.b K Z - X.Z.,.C.: 9 C.m.m.m.C.N q ,.Z.H.t.q.",
"^ L.J.U.M.M.m.m.M.C.C.Z.M.} >.-.=.,.M.T.l./ x.{.{.U , m N : a o = e d :.,.,.N u.G   <.C.-.,.q ,.m.m.*.,.:.s %.U.K.` ) ~ ",
"Q Q D q.C.,.,.C.U.#XZ.,.{ 4 r t o.C.U.K.~ Y z.Y Q < a <.U.q q = > , E b -.M.0.F.B 3 =.-.-.C.U.M.M.,.} } 8 , f.p.` ) ~ ~ ",
"W j E s I.C.C.W.$X$XU.,.' 9 < < u ,.U.K.~ k.E.z.W > ..U.Z.q   : > < W z $.C.I.W.B V.C.M.Z.Z.W.U.m.*.} } 9 W ! ~ c.b.b.Q ",
"#.e > i 1.U.U.$X$XW.C. .{ k 3.t g ,.U.K./ Y z.K , ; :.|.t : ; - ; , , > l #.V.W.6.Z.W.W.W.U.C.I.*.' { ,.s.! ) ].%XW.E.w.",
">.-.e : b C.C.E.E.C.@.f F ! 7.M.= q U.K./ U 3.#.+.X.U.$Xc > - : O.+.B , , : a 8.E.U.U.$XI.m.=.=.' ' =.I.v./ ].=X&XC.Z.m.",
"U.U.V., d C.U.C.m.@.: E Q #.-.,.= | U. Xz.d.M.M.4.T x.H : ; > : a.W.P.M B > - a B.M.m.I.m.=.*.{ ' { M.K.` / c.'.c.U <.,.",
"C.U.V.E f C.C.,.=.a %.8.x 8.C.E.8.=.M.E.L.z.$X&X-XoXoXA ; :.6.> z $XP.G %., > - ..>.=.,.=.l z b >.,.U.n./ ! Q Q / / D Z.",
"-.U.G.Q H Z.>.*.*...=.C.d Y.$XI.,.{ >.C.|.%X:X:X*X&X$XC ; ,.;XS.i C.q.B 3., > ; o.=.*.=.z k k ;.,.I.&X{.Q z.-X,XT ! ! W.",
"Z.$XV.E H C.7.M.,.=.M.I.s g g g y { } C.$X&X:X;X$XE.H j ; Z.$XQ.u ,.&.n #., > - :.,.a [ j W Q.W.#X$X;X+Xz.>X:X&X*X=X` x ",
"I.$X8., H W.E.U.m.M.W.;X;X$X$XV., = a U.&X;Xi.^ ^ k : , B.;XI.N.y ,.Z.Z.%.< > - 1.m.=.=.k #X&X#XI.U.&X+Xb.:X&XI.;X:XL W ",
",.#XB.> B U.M.M.,.U.1X2X>XL W k R.s ,.$X$Xi.Q Q j > , 8.;X$XI.W.,.U.$X$Xe., > : 0.,.{ *.: I.$X#XC.C.$Xn.v.;X#Xm.U.|.c , ",
",.I.G.< V I.I.M.C.&X<X>XK W j x x Z.C.$X$Xp.Q : 6 a > > *X$X,.Z.I.W.$XW.e., > - <.m.{ *.: Z.Z.C.m.I.$Xi.v.&X#Xm.C.s > > ",
"M.I.}.Q V E.$XZ.U.&X:Xd.k > > Z.g E.M.$XW.4.j 0 ,.,.s : R.Z.{ ,.U.$XW.C.#.> = i :.,.} *.: >.,.M.>.,.U.e.g.W.U.,.M.v > > ",
"U.,.G.< b U.U.M.Z.$X;XE.z > > Y.g C.m.#XU.@.8 =.C.,.i - ,.>.} ,.I.#XW.m.r > 0 C.,.>.=.=.: *.>.=.*.>.,.3.s.U.U.M.>.*.h < ",
",.,.F.: @.C.,.>.C.W.$XW.s > > M.: =.,.Z.E.%.3 ,.C.,.p   ] { ,.,.,.U.I.,.$.s O.Z.C.,.m.m.: =.*.*.=.=.=.r e ,.Z.I.M.m.x Q ",
",.,.D.@.m.>.=.*.,.U.W.$X%.: a ;.g {  .,.C.%.3 =.,.} y ; ] *.M.=.,.I.m.M.C.@.O.U.U.U.E.U.: } >.,.m.m.,.e 9 } ,.C.C.M.^ ! ",
">.,.U.M.>.=.*.=.=.,.Z.E.C.g =.;.q } }  .>.q 2 -.,.m.&.u 5 *.=.*.,.C.E.Z.M.:.w <.C.W.$XW.g >.M.E.E.E.I.:.&.} { } } { Z Q ",
"-.,.M.M.M.m.,.,.,.>.m.Z.Z.w.Z.C.,.=.=.} =.q 7 } =.Z.C.y O { { ,.C.W.$XZ.,.,.9 o.U.W.U.C.: q g.i.$X$X$XI.m.,.{ ' ' ' h > ",
",.,.C.G.d.i.I.I.Z.,.m.U.$X$X$X$XW.C.,.m.>.w 1 { { =.=.. O { =.,.U.$XI.,.m.,.....M.M.Z.r , < Q ^ h.L.#XU.U.I.>.{ ' ' : > ",
"=.,.A.I Q S q.I.Z.M.Z.$X$Xv.k.d.g.U.Z.U.,.w 7 { { { { $ O =.M.M.M.C.-.=.,.,.} =.=.>.I.H.k Q W k N H E.E.E.#XI.,.} { u ; ",
"=.,.F.A q.s.N m.M.U.W.$Xv.~ ~ < h ,.C.Z.>.7 8  .}  .} u ] >.m.,.,.M.>.=.=.} } } =.M.W.;X^ ! , i 6 m E.#X$X#XE.I.,.} X o ",
"=.,.R.z I.t.s.U.U.$Xv.T ^ Q W , g ,.,.,.} 7 q r d d d j F.E.,.>.,.Z.C.M.>.=.*.} >.C.|.:Xk P.: | ' ..C.E.E.C.I.m.C.,.. @ ",
"=.,.V.M Z.+.a.I.W.$Xf.p.P +.X., u ,.M.>.{ 2 : Z ! W W Q -X:XW.,.,.U.#XE.C.m.,.>.M.W.k.*Xk |.: { { m.U.#XE.m.,.C.W.Z.$ 4 ",
"} ,.:.m U.W.Y.E.$XE.B $.R.>.>.X.u I.W.M.} q Q ) _ ~ W !  X<X;X^ b U.$XW.E.E.m.M.W.x.~  X: I. .' >.&.l n.;XU.I.Z.W.U.. O ",
"{ =.X.s U.$XW.E.$XE.,.U.M.=.C.$X%Xb W.M.} t ~ ) ) ~ ! ~ A.:X$XW Q n #XE.W.I.m.M.f.~ ~  Xg Z.>...: > W ( n.U.#XU.I.I.>.>.",
"=.{ ] a Z.Z.M.M.W.U.7.>.=.C.I.;X7.a Z.,.-.G / ! ! Q Q ~ ! Q.>XQ.k C I.W.E.W.I.f.~ ~ ! ! ! :.g : W Q / ! g.I.W.U.I.#XI.; ",
"} { [ p =.,.>.>.M.M.,.,.C.,.Z.C.u U.W.C.3.^ Q E Q E E ! ! ! $X;XT.E m I.C.Z.Y.x.! Q j k k P $XP.~ ~ ^ , q -.C.I.I.#XI.u ",
"{ ' 4 $ { } } =.>.M.C.>.,.>.{ 4 = ,.M...9.v.Q , E > , E E W V.Q.T.E a *.>.M.f.! S j [ *.=.m.U.V.E b @.j e Z.W.$XI.W.I.p ",
"' ' O # { { { } =.>.,.-.C.C.} ] = [ r < Q Q Q E , < , , > > W ^ i.W i [ *.>.B L H.m ..&.&.r.S.t.k %.r.l #.W.R.H.X.M.,...",
"{ ' O @ ' *.=.,.,.M.C.M.M.C.,.=.o - < W , > > , , E > u a a b M E W W i 6 ..b q.E.m ;.g W j > ; J $XW.%.3.T.H W , r =.= ",
"} ' ' 7 } ,.M.I.E.P.L.L.p.p.E.,.a > Q , = y o u g > : [ M.M.Z.7.> > W > > 9 9 $.U.m A.g.> s : : H U.C.@.%.q.V x < >  .2 ",
"{ ' { { >.Z.$X&X}.P Q Q Q Q p.U.-.> < = w 1   7 p > o :.#XE.E.B.o - o > > 9 8 0 m.s R.I.g ] - = #.C.,.0 %.I.C.n > > ..=.",
"{ { { } ,.U.;X:Xb.J g.%.a.j W U.X.> , 2 { 5 y 7 w q u -.E.$X$XY.    . p > q o.] *.y A.I.u ] ; i -.C.Z.0 o.,.m.b > > [ } ",
"} { { } m.E.&X&Xd.3.U.I.E.w.j I. .i e.6.=.,.r w M.,.y X.Z.$XE.A.  X 5 0 o 7 ,.=.} y ;.,.; [ > g 0 ,.M.0 q m.,.O.h > m =.",
"=.{ { >.m.E.P.s.g m s.F.E.#Xg I.<.y D.|.C.7.@.0 M.,.p <.M.U.,.>.# $ =.&.  7 ,.=.} y ..=.0 =.j %.g 0 ,.0 r m.,.#.^ ! Q n ",
"=.{ { ..M I P H 8.r.0.I.I.U.> I.U.$ ,.C.M.-.q y 3 p = B.C.m.>.=.] # M.O.  # *.=.=.y <.M.>.U.x Y.#.u o.0 q ,.#.^ / Q E J.",
"p } =.0.! ! E D r.U.W.W.q a ; a a u ,.m.Z.0 i > ; > ; s a p p p $   q o.  # m.m.m.A.W.#XC.m.g v s ; = u = p c _ Q 5.g b ",
"= u 9 P.A 1.S.d.y.C.Z.r : > : ; > : i i p % : h.H < < < > , , > > o ; u   o.U.I.I.#X$X$Xs i > > > , , j < W ) ! , G.B.= ",
"o ; = g B U.U.r i u u : j E Q Q E E < : > > > c Q / _ / ! ! < < W j j > g > g g i i s i > > > , W ! Q ! ! ! Q , - u u = ",
"_.~.& ; ; = = = o o ; o ; ; ; ; o * /._.).^.% o = - ; ; ; ; ; ; o ; ; ; ; o ; o & ~.(.(.^.* o o ; ; ; ; ; ; - = ; & ~._."
};
