/* XPM */
static char *redbrick[] = {
/* columns rows colors chars-per-pixel */
"60 60 129 2 ",
"   c #3E0505",
".  c #360A0A",
"X  c #3A0B0B",
"o  c #2D1515",
"O  c #271B1B",
"+  c #291C1C",
"@  c #351515",
"#  c #3C1414",
"$  c #341C1C",
"%  c #3B1B1B",
"&  c #232323",
"*  c #2F2525",
"=  c #2C2A2A",
"-  c #322525",
";  c #3A2626",
":  c #332B2B",
">  c #382C2C",
",  c #333333",
"<  c #3B3131",
"1  c #3B3B3B",
"2  c #450202",
"3  c #4A0202",
"4  c #430B0B",
"5  c #4B0A0A",
"6  c #540101",
"7  c #5C0101",
"8  c #560C0C",
"9  c #580D0D",
"0  c #431414",
"q  c #491616",
"w  c #421B1B",
"e  c #4C1C1C",
"r  c #521C1C",
"t  c #640000",
"y  c #6C0000",
"u  c #6E0E0E",
"i  c #740000",
"p  c #7C0000",
"a  c #7C0808",
"s  c #7F1515",
"d  c #4F2020",
"f  c #412F2F",
"g  c #552323",
"h  c #5C2727",
"j  c #552C2C",
"k  c #5C2B2B",
"l  c #443737",
"z  c #4D3232",
"x  c #433B3B",
"c  c #4A3D3D",
"v  c #513535",
"b  c #553D3D",
"n  c #5A3F3F",
"m  c #652525",
"M  c #6B2525",
"N  c #642D2D",
"B  c #6D2C2C",
"V  c #742424",
"C  c #7E2626",
"Z  c #732D2D",
"A  c #7B2B2B",
"S  c #653535",
"D  c #6B3535",
"F  c #643B3B",
"G  c #6B3C3C",
"H  c #743434",
"J  c #7A3232",
"K  c #723D3D",
"L  c #444444",
"P  c #4C4444",
"I  c #4B4B4B",
"U  c #524444",
"Y  c #5D4343",
"T  c #544C4C",
"R  c #5B4B4B",
"E  c #535353",
"W  c #585252",
"Q  c #5D5D5D",
"!  c #654444",
"~  c #6C4444",
"^  c #654949",
"/  c #704141",
"(  c #774848",
")  c #7A4B4B",
"_  c #616161",
"`  c #830000",
"'  c #8B0000",
"]  c #8A0B0B",
"[  c #930000",
"{  c #9B0000",
"}  c #920909",
"|  c #9B0E0E",
" . c #801111",
".. c #8B1616",
"X. c #851D1D",
"o. c #8F1919",
"O. c #9D1313",
"+. c #921C1C",
"@. c #9D1818",
"#. c #A30000",
"$. c #AB0000",
"%. c #A40E0E",
"&. c #AD0D0D",
"*. c #B30000",
"=. c #BB0000",
"-. c #A21515",
";. c #AA1313",
":. c #A31B1B",
">. c #AC1B1B",
",. c #B21313",
"<. c #BB1212",
"1. c #B11F1F",
"2. c #842424",
"3. c #892323",
"4. c #822D2D",
"5. c #8F2828",
"6. c #952020",
"7. c #9A2525",
"8. c #922828",
"9. c #833333",
"0. c #8B3333",
"q. c #C30000",
"w. c #CC0000",
"e. c #C30A0A",
"r. c #D20000",
"t. c #DC0101",
"y. c #C31313",
"u. c #E20000",
"i. c #EB0000",
/* pixels */
"1 1 1 1 1 1 1 1 1 1 1 1 1 1 1 1 1 1 1 1 1 , 1 1 1 , 1 1 1 , 1 1 , 1 1 , 1 1 1 1 1 1 1 1 1 1 1 1 , 1 1 1 1 1 1 , 1 1 , 1 ",
"T z ^ n b n b n Y n b b P L E n z n b b n n Y Y ^ ^ ^ ^ ^ n n n Y Y P P I R ^ ^ ^ ^ ^ ^ n n n b z z v n Y ^ Y b b n U 1 ",
"l i.u.w.w.r.w.w.w.w.w.#.v P E i.t.w.w.w.w.w.w.w.w.r.w.w.q.w.q.w.r.=. .1 L 7.u.u.u.t.t.r.t.w.t.q.w.w.w.q.q.=.q.=.=.=.{ c ",
"U u.=.#.*.$.{ $.#.$.#.i - L E u.*.' #.{ { { { { { $.#.#.' *.p =.*.' 9 , L X.=.*.$.$.$.$.*.p *.' *.*.$.{ #.' $.[ *.{ p : ",
"U w.[ ' { ' { [ ' [ i 7 - L E r.$.{ [ { ` ' { ' ' { { p ' #.i { ' y 5 1 I 8.*.{ ` i { ` p ` #.p [ { [ ' [ ` [ p [ p 7 = ",
"U w.' { [ ` [ { ` [ i 3 - I E w.{ #.{ ' [ ' [ ' p [ ` p ` [ p ' ` y 0 , L 5.[ [ p ' [ y #.i ' [ { ' [ ' #.' [ p { ` 6 = ",
"P =.[ ' ' ' [ ' ` ' i 3 * L I =.=.' { ` ' [ ' ` p [ ' i ' ' p ` ' t 0 = 1 2.{ [ ` ' [ i [ y p [ { ' [ ' { ' { p [ ` 3 = ",
"U =.' [ ` i ' i i p y 3 - 1 I $.$.` p i ' p ` ` y p ' i p ' t ' i t 4 , L 2.{ ' y i ' y ` t p i ' i i i ` y p ` ` ` 3 : ",
"P [ p y y 3 7 6 3 7 6 2 * 1 I ` p y t 7 y t t t 7 7 t 6 7 6 2 7 6 3 X : L V p y t t y 7 i 7 t t t 6 7 7 t 6 7 y 7 t 2 = ",
"P j w w % $ $ $ $ @ o o = , I k % % % % $ @ @ @ @ % $ @ o o o $ $ $ - , L b e w w w % w w w w % % @ @ @ @ % % % $ $ $ = ",
"T 1 1 , 1 1 L 1 , , : , , L L L L L x 1 1 1 , , 1 x L 1 , , 1 x 1 L L L I L L L I L T E E I I L 1 1 , , 1 1 x L L 1 L 1 ",
"y.&.&.%.| O.O.-.O.| | | | O.] I I n y.<.,.&.&.&.,.;.-.-.%.%.;.-.O.O.O.-.O.| -.-.-.-.-.-.:.:.-.-.O.V L P 0.y.,.,.;.,.,.&.",
"=.[ { *.{ [ { [ [ #.' #.[ #.6 1 I ~ r.{ q.$.#.{ ' *.#.[ q.#.$.[ ' [ #.{ #.{ [ $.' *.{ { =.q.#.q.[ q L L +.t.#.$.#.*.{ *.",
"' { [ { ` ' p ` [ p p #.#.p 2 , I F w.{ ' [ [ #.[ { i [ p y ' { ` { ' ' ` #.[ p [ [ { p [ #.p { y X 1 I 8.=.[ [ ' ` { { ",
"i #.{ ' ` p [ ` ' ' i [ [ i 2 = 1 F =.` { ' ' ' i p ` p { ' y #.` p y ` ` { p i ` { p { i #.{ i t # , L 5.{ [ #.#.` #.p ",
"#.' ' { ` p ` ` [ { i [ i y 2 = 1 F =.` { [ [ ` p { i y { t ' { p ` ' ' p [ y ' i [ p ` i { p { t X , 1 3.*.[ { ` { [ ` ",
"i { y ' i ` ' p ' p p { #.i 2 = I ! q.[ i ' ' [ i p t p i t { ' i y ` ' i i i [ i p { i ` #.i [ t . = L C [ [ { y ' ` ` ",
"y [ t t 6 i i p p i 7 p y t 2 = I ! $.' i y t ` p p y y ` 7 i ` y ` y i i ` y p i y p 6 y ' y p 7 . = L C #.` i 7 t ' y ",
"X 4 4 4 4 4 4 4 X 4 4 4 X . X 1 I Y  .9 8 8 8 8 8 8 8 9 9 8 8 5 5 5 5 3 5 4 5 5 5 4 5 5 5 5 5 5 X @ 1 L m u 4 5 4 X 6 X ",
"1 1 , = = 1 , = = , , = = * , 1 L L L 1 1 , , , , = , 1 1 L 1 , , , = = = = = , 1 , = * & , , 1 , , L I I 1 , , , 1 1 , ",
"R 0.4.V V 9.A A A Z Z M M M m Z Z J Z Z Z M M M M m c I I 9.0.A 9.A V V V V A A Z J Z M m M Z Z J H J Z Z Z M M J Z B P ",
"R u.q.q.q.*.=.=.=.*.$.*.$.*.q.#.*.$.*.$.=.#.$.=.$.` v I E u.r.$.r.q.q.*.q.=.=.=.*.#.{ $.$.{ #.$.#.$.$.$.$.$.#.$.[ $.` 1 ",
"U u.{ #.#.{ { ` ' { { { [ { *.' ' [ [ { { ` [ #.[ 7 - L Q t.=.' *.' { ` [ ' { ' { p i #.p ` ` { ` [ { ' ' [ ` { p ` 3 = ",
"c q.' { { ` ` p ` [ ' [ ' [ #.i p { p [ ' i p ' ' 7 & I Q w.=.' { p ' p ` ` [ ` [ ` [ [ t #.i ' [ [ ' ' ' #.' [ p y 2 = ",
"U *.[ [ ' i p y p [ ' ` p { ' p i ' ' ` { p p ' y 3 * I Q e.[ [ ` ' ` i ' ` [ ` ` i ' { i ' i ` [ [ ' ' ' [ ' { p y 2 = ",
"R *.` p ' t ` ` ` ' p ' i { ` i ` [ ` i ' i ` p ' 7 - L W w.$.` [ ` [ ' [ ` ' p ' y i p 7 { 7 [ i ' p { ' p t i ` i 2 = ",
"U =.' y i y y y t y y ` y ' i y ` p i y ` ` ` ` p 6 * 1 E e.$.i [ p ` y p i p y ` i p 7 ' y y [ 7 p y ` ` p t ` p i 3 = ",
"U $.[ t t y t t t t y y t y y t 7 6 6 6 6 6 6 6 3 2 $ , E #.i t y t y t t t t t y t y 7 t 7 7 t 7 7 7 7 t t 3 7 i t 2 = ",
"I b f - - - : - - : - : : - : - * : : < < > : : * * = L I U - - : : - : - * + + O O - < < < * + O & - - - : * * - - - = ",
"E E W E E L L x L , , L I Q _ E E I L L L 1 1 , 1 1 1 1 I I L I I 1 I I I L 1 1 1 1 L E E P L 1 1 L L I I L L I I L E , ",
"*.=.=.=.=.=.=.=.=.$.k 1 T e.r.w.r.r.r.r.q.=.=.=.*.=.=.=.=.=.=.=.=.=.=.*.$.V I E :.u.r.r.w.r.w.w.r.w.q.=.=.=.=.=.=.=.*.=.",
"#.$.#.$.#.=.$.*.$.t ; L L e.#.y { p #.' ` [ [ #.` [ ' y { #.t #.[ ` [ ' p % L T >.$.` { i #.{ i { ` ` ' ' ' ' { ` { p { ",
"{ p [ { { [ ' { p 6 - 1 I e.y #.` ' { ' { ` ` [ ' i ` ` { ' i { i [ [ p i % I E >.*.y { i #.` p { [ [ ` ' ' ` ' ' ' [ i ",
"' ` { { ' { ' [ ` 6 $ L L e.i [ #.p { ' p ' ' [ [ i [ t ` ' [ ` p [ [ ' i % I Q 1.#.' { i #.` { [ { [ ' ' ' ' { [ ` [ i ",
"#.' ` { [ { ' ' p 6 ; L T e.' p [ p { p i [ ' ' ` ` [ y ' ' y [ [ i [ [ y % I E >.{ [ #.` [ p { [ ` ' [ ' ' [ { ' ` ` p ",
"' p ' [ ` ' ` ' p 6 ; L I &.y #.` t { ' p ' [ ' [ p p 7 i [ t { ` ' [ ` y % 1 E :.*.p { [ ` #.' ' ' [ ' ' ' ' [ ` ' #.i ",
"7 7 i i 7 y y t 7 3 - L L } t ' ` t ` y i p p y i t y t p i t i y p i t 6 @ 1 I @.[ t ` y ' ` p ` p ` p p i i i i p ` 7 ",
"@ @ @ % # # @ % @ @ * L I Z q 0 0 0 0 q q e e 0 # # # # # q q w 0 q 0 # @ - L I S r q q w r e g e q q 0 0 q q 0 0 0 0 @ ",
"L 1 x , 1 , 1 1 1 : , 1 I I , = , , , 1 1 L I L 1 : = = 1 1 1 1 L 1 1 , 1 1 L I P L 1 1 1 I I W L 1 1 , 1 1 L 1 L , L , ",
"P >.:.@.@.@.O.@.+.......o.+.......+.+.+.+.6.6.+.o.......+.X.1 I b -.-.@.@.@.@.:.:.:.o.+.+.6.7.7.+.+.o.o.o.o.6.+.+...3.L ",
"T r.*.{ $.#.{ *.{ { #.{ #.' [ $.` #.{ #.{ { [ [ { $.[ ' #.t 1 I G u.*.#.{ { { [ #.[ #.p $.[ p #.[ [ #.[ #.{ { [ [ #.y < ",
"U w.{ p { p p { [ ' { p ' t [ { y { y [ [ a ` ' [ [ [ p [ 2 , I F w.[ ' i p i y p y [ i #.t ' p [ p ` ` [ ` ' { p ' 3 = ",
"U w.` i [ i p i ' p [ ' p ` #.i ' ' i y ' p i i p i ` ` p 2 = 1 F q.[ ' y i [ ` y ` ` t [ [ y [ p p ' ' [ ' ` ` y [ 3 - ",
"l r.{ ' { i ` ' ` ' { ` { t ` { i [ t ' ' i { ' [ { { p i 2 = 1 F q.[ p [ i ' i ` ` [ p ` t ` i [ ` ' ' [ ' i [ ' { 3 = ",
"R w.[ i [ ' ` ` ' p [ i [ p { y y { t ` ' [ ` i ` p ` i { 2 & 1 ~ w.' t ` ` i y ' y [ t [ 7 { y ` ` ' p [ ' ' ' i y 2 = ",
"l q.[ i ' i p p ' ` [ ' ` ` { [ t ` i 7 p p i ` ` ` [ i { 2 & 1 ~ $.p ' i i ` i i [ ` 6 ' i ` y ' p ' ` ' ' p ' i [ 3 = ",
"T } 7 9 8 7 7 7 9 t 3 3 4 2 2 2 2 2 2 4 2 2 2 4 2 2 3 2 2 . = I Y ] 7 9 7 9 8 6 7 7 6 8 6 8 3 5 2 2 2 2 2 5 2 2 2   2 = ",
"1 L , : , , , , , , , 1 L L , = & = = , , = & & = , , = = = , I x x , , : , , = = = , , L , , = , , , = & & = = , , , , ",
"K N K S G G G S S S G ( ) / S G v T I R D N N h N D K G D k S S G k G F S S S S S S G G E I T H D D S h e w r k S S G F ",
"=.q.*.q.=.#.$.$.*.*.$.*.#.*.#.*.a L I J u.w.q.q.=.=.$.q.=.*.#.*.#.*.*.$.$.$.$.#.$.$.{ ' P 1 ^ t.q.*.q.=.*.$.$.$.*.#.*.#.",
"' ' i #.' ` p ` ` { ` ' y [ i [   , L H =.{ { { p ` 7 ' ' [ p [ y { [ p p ` ` i ' i p 2 , I ^ q.` p ` ` ` ' ' ' ' p [ t ",
"#.p i ' ' ` p ` ` ' y p p p p p   , I Z *.' ` ' p i t ` p ' ` [ ` ` ' i ` p i i ' i ` 3 : I ^ =.i [ i ' [ ' p ' p ` ` y ",
"[ ` 7 ' p p ` p [ ' y ` p y { y   , L B =.p y ' p ` i [ i { 7 #.` p ` p ' p ` y p p y 2 = L ^ q.` p i ' [ ` ` ` ` y y [ ",
"i { i [ y ` p ' ` [ p y p ` ' i   , I B *.i ` ` ` ' y ' y ` 7 { y ' i p p p ` t i p y 2 = I ! q.` ` ` [ ` ` ` i p ` i #.",
"t { p ` i [ p ' p p i p i { i '   = I Z #.i [ ' ` p p ` 6 ' 7 ' t [ y p ' i ` y ` i i 2 = x b =.i [ i i ` ' ` p 7 i ' y ",
"p [ y ' y p p i p ' y [ i p p ` . , I H *.p y ' p ` y p t { y [ y ` ' i ' ` p p ` y ` 3 = 1 Y =.y y y p p ' ' ` ' y { y ",
"7 7 6 7 6 6 6 6 7 7 6 7 6 6 7 3   , I S ' 3 3 6 6 7 3 7 6 t 6 7 6 6 7 6 t 7 6 7 7 6 6 2 & L R { 3 3 6 7 7 7 7 7 7 7 7 6 ",
"- - - - - : - - - - - - - - - * - : I T z > : - - - - - - - - - - - - - + O O O O + O O & , P v * * - - - + O O O O - - ",
", I 1 P , , 1 I L L L I E 1 L P L L E E E E I I L I L L I I L L 1 L L L 1 , 1 1 1 1 L 1 , L E I L 1 I L L L 1 1 , L L L ",
"E E E E E E E E E E E W E E E E E E E W E E E E E E E W E E E E E E E E E E I E I E E E E E E W E E E W E E E E E W E W "
};
