/* XPM */
static char *wwood[] = {
/* columns rows colors chars-per-pixel */
"60 60 223 2 ",
"   c #2E240F",
".  c #332710",
"X  c #372912",
"o  c #362A12",
"O  c #3A2B13",
"+  c #3C2B14",
"@  c #392C14",
"#  c #3B2D14",
"$  c #3C2E15",
"%  c #422F16",
"&  c #423016",
"*  c #443216",
"=  c #433219",
"-  c #443318",
";  c #463418",
":  c #473518",
">  c #493319",
",  c #493518",
"<  c #4A3619",
"1  c #4A361A",
"2  c #4C3719",
"3  c #483818",
"4  c #493818",
"5  c #493919",
"6  c #4A3919",
"7  c #4B3919",
"8  c #4C3919",
"9  c #4C3A19",
"0  c #4F391A",
"q  c #4F391B",
"w  c #4C3A1A",
"e  c #4D3A1A",
"r  c #4E3A1A",
"t  c #4F3A1A",
"y  c #4E3B1A",
"u  c #4F3B1A",
"i  c #4E3B1B",
"p  c #4F3B1B",
"a  c #503B1B",
"s  c #513B1B",
"d  c #523B1B",
"f  c #503C1B",
"g  c #513C1B",
"h  c #523C1B",
"j  c #513A1C",
"k  c #563A1E",
"l  c #513C1C",
"z  c #513D1C",
"x  c #523C1C",
"c  c #533C1C",
"v  c #523D1C",
"b  c #533D1C",
"n  c #533D1D",
"m  c #543C1C",
"M  c #553C1C",
"N  c #543D1C",
"B  c #553D1C",
"V  c #543D1D",
"C  c #553D1D",
"Z  c #563D1D",
"A  c #573D1D",
"S  c #543E1C",
"D  c #553E1C",
"F  c #543E1D",
"G  c #553E1D",
"H  c #563E1D",
"J  c #573E1D",
"K  c #573F1D",
"L  c #563D1E",
"P  c #563E1E",
"I  c #573E1E",
"U  c #563F1E",
"Y  c #583E1D",
"T  c #583F1D",
"R  c #583D1E",
"E  c #583E1E",
"W  c #593E1E",
"Q  c #583F1E",
"!  c #593F1E",
"~  c #583F1F",
"^  c #593F1F",
"/  c #5A3F1E",
"(  c #5B3F1E",
")  c #5A3F1F",
"_  c #5B3F1F",
"`  c #59401E",
"'  c #5A401E",
"]  c #5B401E",
"[  c #5A401F",
"{  c #5B401F",
"}  c #5A411F",
"|  c #5B411F",
" . c #5C401F",
".. c #5D401F",
"X. c #5C411F",
"o. c #5D411F",
"O. c #5E411F",
"+. c #5E421F",
"@. c #5B4020",
"#. c #5C4020",
"$. c #5D4020",
"%. c #5D4120",
"&. c #5E4120",
"*. c #5F4120",
"=. c #5E4121",
"-. c #5F4121",
";. c #5D4220",
":. c #5E4220",
">. c #5F4220",
",. c #5F4221",
"<. c #604220",
"1. c #614220",
"2. c #614320",
"3. c #604221",
"4. c #604321",
"5. c #614321",
"6. c #624321",
"7. c #634321",
"8. c #614222",
"9. c #614322",
"0. c #624322",
"q. c #634322",
"w. c #634421",
"e. c #614422",
"r. c #624422",
"t. c #634422",
"y. c #634423",
"u. c #644421",
"i. c #644422",
"p. c #654422",
"a. c #644522",
"s. c #654522",
"d. c #644423",
"f. c #654423",
"g. c #654523",
"h. c #664522",
"j. c #664523",
"k. c #674622",
"l. c #664623",
"z. c #674623",
"x. c #674524",
"c. c #674624",
"v. c #684623",
"b. c #694623",
"n. c #694723",
"m. c #6A4723",
"M. c #684624",
"N. c #694624",
"B. c #694724",
"V. c #684725",
"C. c #694725",
"Z. c #6A4724",
"A. c #6B4724",
"S. c #6A4725",
"D. c #6B4725",
"F. c #6B4824",
"G. c #6B4825",
"H. c #6B4826",
"J. c #6C4824",
"K. c #6D4824",
"L. c #6C4825",
"P. c #6D4825",
"I. c #6D4925",
"U. c #6E4925",
"Y. c #6F4925",
"T. c #6D4826",
"R. c #6D4926",
"E. c #6E4926",
"W. c #6F4926",
"Q. c #6E4A26",
"!. c #6F4A26",
"~. c #6F4A27",
"^. c #704A26",
"/. c #714A26",
"(. c #714B26",
"). c #704A27",
"_. c #714A27",
"`. c #714B27",
"'. c #724B27",
"]. c #734B27",
"[. c #734C27",
"{. c #734B28",
"}. c #724C28",
"|. c #734C28",
" X c #744C28",
".X c #744D28",
"XX c #754D28",
"oX c #764D28",
"OX c #764D29",
"+X c #774E29",
"@X c #754F2A",
"#X c #774F2A",
"$X c #784E2A",
"%X c #784F2A",
"&X c #794F2A",
"*X c #78502B",
"=X c #7A502B",
"-X c #7B502B",
";X c #7A512B",
":X c #7C512C",
">X c #7D512D",
",X c #7D522C",
"<X c #7D522D",
"1X c #7E522D",
"2X c #7F522D",
"3X c #7F532D",
"4X c #7F522E",
"5X c #7F532E",
"6X c #80532D",
"7X c #80532E",
"8X c #81542E",
"9X c #81542F",
"0X c #83552E",
"qX c #82542F",
"wX c #82552F",
"eX c #83552F",
"rX c #84552F",
"tX c #84562F",
"yX c #85562F",
"uX c #855630",
"iX c #865630",
"pX c #895831",
"aX c #8C5A33",
/* pixels */
"= = = = = = = = = = = = = = = = = = = = * = = = = = = = = = = = = = = = = = = = = = = = = = = = = = = = = = = = = = = = ",
"(.(.(.(.(.(.(.(.(.(.(.(.(.(.(.(.(.(.(.(.(.(.(.(.(.(.(.(.(.(.(.(.}.}.}.K.(.(.(.I.(.(.(.(.I.[.[.(.(.(.(.(.(.(.(.(.(.(.(.(.",
"tXiXiXiXiXiXwXwX<X<XwXtXiXiXiXwXtXtXiXiXtXtXtXwXtX<X6XtXiXiXtX6XuX#XuXiXiXiXiXiX6XiX<X6XwXtXtXtXtXtXtXtXtXtXwXwX<X<XtXtX",
"s h /  .{  .q j & o / / n s s n  ./ n P S S s 3 P O O _  .s / = R   : =.k j s n ; @.. $ 0.h { q h / P P P  ., / O +  ./ ",
"3 7 I. X|.(.0.|.k * <XI.7 3 3 q  XI.h w.S { 3 y -X, , iX%X7 (. .<X. c.4X@.7 , =./ 6X+ q aX7 I.7 h v.{ +.=. Xe.<X% 2 pX(.",
"3 q b.}. XS.P |.k * <X%Xh 3 3 P  XG.h w.`  .3 y -X= , iX Xq (. .<X. c.iXI.@.=.~.=.uX+ 2 aX7 I.3 ` s.` w. . X0.<X% 2 pXK.",
"q 3 =.(. Xc.n |.k * -X;X{ 7 3 / XXS.h  .` X.3 y -X> , iX(.7 |. .-X. c.iX|.~.K. X=.wXO q aX7 I.7 u v.{ +. .XX>.<X% 2 pXK.",
" .3 n c.}.=.p |.k * <X;X{ 7 q s.(.s.h 0.h { 3 y -X> , iX(.7 (. .<X. c.iX|.|. X X=.<X+ q aX7 I.7 h v.{ e. .[.0.<X% 9 pXw.",
"F.3 u P e.n q |.P & <X;Xc.q P (.[.+.f w.` { 3 u -X= , iXS.7 }./ <X. S.iX X X X X .wXO q aX7 I.3 ` v.` ,.{ ~.+.<X& 3 aXP ",
"I.h 7 q n 7 q ~.k & <X;X(./ s.|.~.' f +.` { 3 q -X> , iX0.7 }./ #X. c.iX X X X X .wXO q aX7 ~.3 u a.X.,.` G.+.<X& q iXP ",
"[.h 3 3 7 7 p }.k * <X-X Xb.(. X~.S f w.h ' 3 u -X, , iX` , }./ <X. c.iX X X X X .tX@ q aX7 ~.3 ` a.` ,.h G.e.<X% 3 aXs ",
"I.v.3 3 7 @.e.|.k * <X-X XI. X XI.h f +.` X.3 u -X= , iXn P }./ <X. c.wX(. X X X .wX@ q aX9 ~.3 ` v.} a.u e.w.<X% 3 pXq ",
"K.I.q 3 7 0.s.|.k * <X-X XXX X|.F.3 h w.` { 3 u -X= , uXu @.|.{ <X. c.wX(.].(.(. .wX+ 0 aX7 ~.3 u a.` v.9 ,.+.<X% 2 pXq ",
"0. XS.7 { [.s.|.k * <X-X[.XX X Xs.3 h w.` { 3 9 -X, , uXn I.|.{ -X. c.<Xb.XX].(. .6X+ 0 aX7 I.3 ` a.` v.u ,.,.<X% 2 tXq ",
"P [.[.G. .G./ |.k * <X X[. X X Xk.3 h +.n { 3 q -X, , uX=.[.[.{ <X. G. X/ (.(.i.K wX+ 0 aX7 ~.3 ` v.} a.u ,.,.,X% 2 iX/ ",
"7 I. XI.s.b.n |.k * <XXX(. X X|.{ 3 h w.` { 3 q -X> , uXy.[.G.{ <X. c. Xs 0.>.s s 6X+ 0 aX9 I.3 9 a.` c.` ,.,.,X% 2 pX/ ",
"7 G.[. X Xc.n }.k & <XS.(. X X}.` 3 h +.S X.3 9 -X3 , yX$X].m._ <X. c.@X, j p 3 p <X# q aX7 I.3 h v.` F.S  . .<X% 2 pX{ ",
"7 =.I.[.|.,.7 }.k & <XS.I. X X(.h 3 h w.'  .3 f &X> 3 iX$X]._ _ <X. c.@X3 7 3 3 j uX+ q aX7 ~.3 h s.` [.{ +. .<X% 2 pX(.",
"3 h G.XXG.n u |.k * <X0.S.}. X(.h 3 ' w.S  .3 9 %X> 3 tX%Xm./ _ &X. S. X3 3 3 3 q wX+ q aX7 I.3 ` e.` ~.{ { { -X% 2 iXI.",
"3 7 =. XG.u 7 }.k * <X0.i.(. Xb.3 3 ' +.K  .3 s &X> , iX%Xb.2 _ <X. c.#X7 3 3 w h wX+ 2 aXq I.3 ` v.` [.{ h { <X% 2 aXI.",
"q 3 / F.=.q q [.k * <X@.P (.XXs.3 3  .w.S  .3 9 ;X> , tX].P 7 _ <X. S.6X@.7 2 @./ <X+ q aX3 I.7 u v.` ~. .h P <X% 2 pXK.",
"h 3 q P 7 7 u [.k * <X{ P K.(./ 3 q >.w.`  .3 f ;X> , tXK.2 7 _ <X. c.6XS./ =.K. .wXO q aXq (.3 h v.` ~.>.3 q -X% 2 aXI.",
"h 3 3 q 3 7 n |.n * <X{ h 0.e.P 3 9  . .S  .3 y ;X> , tX/ 3 3 _ &X. c.iX(.S.S.}. .wXO 2 aX3 (.3 u v.u F.s.q s <X% 2 pXs.",
" .3 3 3 3 n @.|.P * ,XX.7 P { q 3 y w.h ` ' 3 y %X> , tXh 3 7  .<X. c.iX X}. X X0.wXO q aX3 I.3 ` v.u v.s.q s -X% 3 aX{ ",
"F.3 3 3 3 S >.XXk & <X{ 3 7 7 3 3 y k.u ` ' 3 q ;X> , iXn 3 q { &X. S.iX X X X X .wXO q aX7 I.3 u v.u e.v.h u <X% 2 aXP ",
"F.u 3 3 3 K  .[.P * <X{ 3 7 3 3 3 S F.3 ` { 3 u %X> , iXu 3 P { <X. S.iX X X X X .6XO q aX7 ~.3 ` v.u e.I.{ n <X% 2 iXh ",
" .S 3 3 q S P [.k & <X{ 3 3 3 3 3 w.F.3 h ' 3 y ;X> , iXh 3 / { #X. c.iX}. X X X>.wX@ s aX7 ~.3 u a.9 e.(. .n <X& 2 pX9 ",
"{ e.3 3 s 0.h [.P * <X{ 3 3 3 3 3 w.v.3 ` X.3 u %X> , iXu 7 s.{ <X. c.6XK. X X X .wX@ q aX7 ~.3 ` ,.5 ;. Xe.h ;X& 3 pXu ",
"S b.h 3 h  .q [.k * <X{ 3 3 3 3 7 F.F.3 ` { 3 q -X> , iXn n F.{ -X. c.<Xb.].].(. .8X+ 0 aX7 ~.3 P s.3 {  Xs./ <X% 2 aX7 ",
"3 { h h s.P u [.k * <Xe.3 3 3 3 u K.v.3 ` +.3 u -X; , iXu { [.{ <X. c.<Xi.(.].(. .wX+ 0 aX7 I.3 h s.3 P (.(. .<X% 2 tXq ",
"3 K s.{ e.u q ~.k * ,XG.u 3 3 3 { [.e.q  . .3 q -X= , iX{ G.[.{ <X. G. X/ I.].i.S 8X+ 0 aX7 ~.3 h v.7 P I.(. .<X& 2 pXq ",
"3 S b. .e.u u [.P & <XXX{ 3 3 7  .[.w.3  .{ 3 q -X, , iXe.|.(.{ <X. c. Xs s.(.S s 8X+ 0 aX9 I.3 n G.s s S.].0.<X& 3 pXq ",
"3 3  .b.h 3 u [.n & <X-Xs.q 3 n e.(.P q e.{ 3 q ;X* 3 yX(.].]._ <X. S. X3 ` =.u p <X+ q aX7 I.3 n G.u u s. X .<X& 2 aXP ",
"3 9 s / q 3 u [.P & <X-XI.{ 7 P  XI.n q e.{ 3 u ;X3 > yX%X X(._ <X. S. X3 p p 3 p uX+ 2 aX7 (.3 h G.u u s. X0.<X& 2 pX/ ",
"3 3 3 s 3 3 q |.k * <X-X|.c.u s.[.I.u h s. .3 u &X> > tX%X].S. .<X. c. X3 3 3 3 p wX# q aX7 I.7 h G.h u s.[.0.<X% 2 pXi.",
"3 3 3 3 3 7 q |.k & <X-X X Xs.|.[.F.3 h K. .3 h &X> 3 tX%X Xs. .<X. c.@X3 3 3 3 n <X# q aX7 I.3 n I.n 9 e.[.=.<X% , aXI.",
"q 3 3 3 3 9 c (.k * <X%X|. X X X[.s.3 h Y. .3 u &X> , iX%X(.@./ <X. c.#Xp ; 3 3 s 6XO q aX7 I.7 P I.{ 3 { (.e.-X% 2 tXI.",
"s 3 3 3 3 q P XXk * <X X|.|. X X[. .3 ` [. .3 q <X> , iX%XK.n  .-X. c.<Xn 7 3 3 s 6XO q aX7 I.3 h I. .3 S I.e.-X% 2 aX0.",
">.q 3 3 3 S K (.k * <XI.}. X X X[.P 3 S K.` 3 u %X> , iX%Xi., { <X. c.<X=.q 3 p P 6X+ q aX7 I.7 h I.+.3 S b.e.wX% 2 aX/ ",
"m.c 3 3 9  . .XXk * <Xc.I. X X XI.7 3 ` G.h 3 u -X> , iX(.=.7 { <X. c.uXc.n q ` P 6X# q aX7 I.3 u b.s.q s s. .<X% 2 tXs ",
"F./ q 3 n e.,.|.k * <X,.v.|.|.|.F.3 7 { s.q 3 q -X, , uXI.q 7 { &X. c.iXK.=./ i./ 6X+ 2 aX9 I.3 7 e.b.u q w. .-X% 2 aX7 ",
"F.s.h h { a.{ |.k * <X@.{ [.|.|.{ 3 7 e.e.3 3 u -X, , uXs.7 3 { &X. c.iX Xc.i.K. .wXO q aX9 (.3 q 0.b.q q { { <X% 7 uXu ",
" .K.{ S ,.e.n |.k * <X@.h v.|.G.h 7 u G.e.3 3 u #X= , uX` 3 7 { 6X. c.iX X(.(.].=.wX+ q aX7 I.3 7  .G.h 3 h P <X% 2 aX7 ",
"P K.F. .F.s.n |.k * <X@.7 ` G.,.7 3 h I.s.3 3 u -X> , wXh 3 h { &X. c.iX X X X X .wX+ q aXq I.3 7  .G.{ u u S -X% 2 uXq ",
"S K.b.0.F.+.u ~.P * <X{ 3 3 h n 3 3 h [.+.3 3 q -X> , iXh 3 h { uX. S.iX X X X]. .wXO q aX7 I.3 7  .~. .u q S <X% 2 aX7 ",
"3 K.].XX[.,.q [.k * <Xs.7 3 3 3 7 7 { [.+.3 3 u -X> , iXq 7 =.{ &X. x.iX X]. X(. .6X+ q aX7 I.3 3 ` [.w.q u h <X% 2 aX7 ",
"7  .].XX[. .q |.k & <Xe.7 3 3 3 3 7 e.G.P 3 3 q -X, , uXh n K._ #X. x.uX(.].].K._ wX@ q aX7 I.7 3 h I.F.h 3 q -X% 7 iXq ",
"3 / I.].[. .7 |.P & <XG.u 3 3 3 7 u I.G.n 3 3 q -X= , uXP =.(.=.&X. x.uX(.].XXs.K 6X@ q aX7 I.7 7 h G.F.{ u q <X% q uXu ",
"3 S b.XXK.P q (.k * <X X/ 7 3 3 3 s I.s.3 3 3 q -X= , iX0.I.}._ 1X. V.&XS.}.}.x.S 6X+ 2 aXq I.3 3 q s.[.>.q q ,X% 2 aXP ",
"3 7 =.(.s.n q |.P & <X;X_ 7 3 3 7  .[.e.3 q 3 u -X> , iX[.|.(. .1X. x.1Xx.}.K.=.S 6X+ s aX3 I.q 3 u e.~.s.P h ,X% 2 iX{ ",
"3 , / b.e.u 7 |.k & <X;Xs.q 3 3 7 s.(. .3 h h u -X> > iX X X X .&X. V.#X=.(.K.k s wXO 2 aXq I.h 3 q { I.I. .h -X% 2 uX0.",
"3 3 h s./ 7 7 |.P & <X X(./ 3 3 s I.I.q 3 h P u %X> , iX%X X}. .1X. x.#X/ S.i.p s wX+ q aX3 (.h 3 3 h s.(. .S <X& , aXs.",
"3 3 7 ` n 3 q [.k & <X[.[.e.q 7 S [.F.3 3 ` { 9 &X> 2 iX%X X]. .<X. c.@Xq =./ 7 s wXO q aX7 I.s 3 3 q 0.(.>.S <X% 2 aXI.",
"q 3 3 q 7 7 u }.P & <Xe.F.I.e.u b.[.e.3 3 { ' q &X> 2 iX%X X(. .-X. c.@X, n q 3 h <XO q aX7 I.P 3 3 q / G.b./ <X% 2 iX[.",
"h 3 3 3 3 7 n |.k & <X{  .[.[.S.XX(.{ 3 3 { { u &X> > tX%X XI. .<X. c.@X3 7 3 3 s wXO q aX7 I.0.3 3 3 S b.(. .<X% 2 aX X",
"` 3 3 3 3 n { |.P * <X{ q I. X X[.b.y 3 u e.+.u &X> 3 tX%X Xm._ <X. v. X3 3 3 3 q wXO q aX7 e.s.q 3 3 q i.I. .<X% , aX X",
"{ s 3 3 7 { e.[.k 3 -X{ 3 =.I.|.K. .7 3 S I. .u ;X> > tX%XI.0._ -X. c. X3 3 3 3 p 4X# p aX3 =.G.u 3 3 3 P 0./ <X& 2 aX X",
"s.n 3 3 q  .>.[.k & <X{ 3 7 =.I. .7 3 3 P I.,.u ;X3 3 tX%XI./ _ <X. c.#X3 3 3 3 p uX+ p aX7 n I.h 3 3 3 3 h h -X& 2 aX X",
"G./ 3 3 7  .e.|.P * <X{ 3 3 7 @.7 3 3 h G.[.s.P &X> > tX(.=.q _ 4X. c. X3 3 3 5 p uX+ 2 aXP q ~.S 3 3 3 3 3 h <X% , pX X",
"@.@.{ { @.@./ |.k & <Xc.7 3 3 7 3 3 q { =.=.=.P &X> 3 tXi.7 7 _ -X. c.-Xn 3 3 F k uX+ 2 aX@.7 @.P 3 3 3 3 3 h -X% , aX0."
};
